%FSLAX45Y45*%
G04 Gerber Fmt 4.5, Leading zero omitted, Abs format (unit mm)*
G04 Created by KiCad (PCBNEW 4.0.7-e1-6374~58~ubuntu16.04.1) date Sun Aug 13 09:38:44 2017*
%MOMM*%
%LPD*%
G01*
G04 APERTURE LIST*
%ADD10C,0.127000*%
%ADD11C,0.150000*%
%ADD12C,0.200000*%
%ADD13C,0.300000*%
G04 APERTURE END LIST*
D10*
D11*
X15240000Y-6350000D02*
X15240000Y-10160000D01*
X17526000Y-6350000D02*
X15240000Y-6350000D01*
X17526000Y-10160000D02*
X17526000Y-6350000D01*
X17526000Y-10160000D02*
X15240000Y-10160000D01*
D12*
X16120809Y-8815326D02*
X16160809Y-8855326D01*
X16160809Y-8815326D02*
X16120809Y-8855326D01*
X16134400Y-9200200D02*
X16174400Y-9240200D01*
X16174400Y-9200200D02*
X16134400Y-9240200D01*
X16379788Y-6659728D02*
X16419788Y-6699728D01*
X16419788Y-6659728D02*
X16379788Y-6699728D01*
X16502432Y-9234768D02*
X16542432Y-9274768D01*
X16542432Y-9234768D02*
X16502432Y-9274768D01*
X16516452Y-9376987D02*
X16556452Y-9416987D01*
X16556452Y-9376987D02*
X16516452Y-9416987D01*
X16819888Y-9619498D02*
X16859888Y-9659498D01*
X16859888Y-9619498D02*
X16819888Y-9659498D01*
X16974928Y-9282055D02*
X17014928Y-9322055D01*
X17014928Y-9282055D02*
X16974928Y-9322055D01*
X16998000Y-8870000D02*
X17038000Y-8910000D01*
X17038000Y-8870000D02*
X16998000Y-8910000D01*
X17112300Y-6652300D02*
X17152300Y-6692300D01*
X17152300Y-6652300D02*
X17112300Y-6692300D01*
X17112300Y-6652300D02*
X17152300Y-6692300D01*
X17152300Y-6652300D02*
X17112300Y-6692300D01*
X17209178Y-9678485D02*
X17249178Y-9718485D01*
X17249178Y-9678485D02*
X17209178Y-9718485D01*
X15915000Y-6712000D02*
G75*
G03X15915000Y-6712000I-40000J0D01*
G01*
X15915000Y-6912000D02*
G75*
G03X15915000Y-6912000I-40000J0D01*
G01*
X15915000Y-7112000D02*
G75*
G03X15915000Y-7112000I-40000J0D01*
G01*
X15494000Y-8840000D02*
X15494000Y-8940000D01*
X15444000Y-8890000D02*
X15544000Y-8890000D01*
X15494000Y-9094000D02*
X15494000Y-9194000D01*
X15444000Y-9144000D02*
X15544000Y-9144000D01*
X15494000Y-9348000D02*
X15494000Y-9448000D01*
X15444000Y-9398000D02*
X15544000Y-9398000D01*
X15494000Y-9602000D02*
X15494000Y-9702000D01*
X15444000Y-9652000D02*
X15544000Y-9652000D01*
X15494000Y-9856000D02*
X15494000Y-9956000D01*
X15444000Y-9906000D02*
X15544000Y-9906000D01*
X15748000Y-8840000D02*
X15748000Y-8940000D01*
X15698000Y-8890000D02*
X15798000Y-8890000D01*
X15748000Y-9094000D02*
X15748000Y-9194000D01*
X15698000Y-9144000D02*
X15798000Y-9144000D01*
X15748000Y-9348000D02*
X15748000Y-9448000D01*
X15698000Y-9398000D02*
X15798000Y-9398000D01*
X15748000Y-9602000D02*
X15748000Y-9702000D01*
X15698000Y-9652000D02*
X15798000Y-9652000D01*
X15748000Y-9856000D02*
X15748000Y-9956000D01*
X15698000Y-9906000D02*
X15798000Y-9906000D01*
X16143067Y-8107067D02*
X16143067Y-7894933D01*
X15930933Y-7894933D01*
X15930933Y-8107067D01*
X16143067Y-8107067D01*
X16443067Y-8577067D02*
X16443067Y-8364933D01*
X16230933Y-8364933D01*
X16230933Y-8577067D01*
X16443067Y-8577067D01*
X16743067Y-8107067D02*
X16743067Y-7894933D01*
X16530933Y-7894933D01*
X16530933Y-8107067D01*
X16743067Y-8107067D01*
D13*
X15503928Y-10633214D02*
X15503928Y-10333214D01*
X15575357Y-10333214D01*
X15618214Y-10347500D01*
X15646786Y-10376072D01*
X15661071Y-10404643D01*
X15675357Y-10461786D01*
X15675357Y-10504643D01*
X15661071Y-10561786D01*
X15646786Y-10590357D01*
X15618214Y-10618929D01*
X15575357Y-10633214D01*
X15503928Y-10633214D01*
X15803928Y-10633214D02*
X15803928Y-10433214D01*
X15803928Y-10490357D02*
X15818214Y-10461786D01*
X15832500Y-10447500D01*
X15861071Y-10433214D01*
X15889643Y-10433214D01*
X15989643Y-10633214D02*
X15989643Y-10433214D01*
X15989643Y-10333214D02*
X15975357Y-10347500D01*
X15989643Y-10361786D01*
X16003928Y-10347500D01*
X15989643Y-10333214D01*
X15989643Y-10361786D01*
X16175357Y-10633214D02*
X16146786Y-10618929D01*
X16132500Y-10590357D01*
X16132500Y-10333214D01*
X16332500Y-10633214D02*
X16303928Y-10618929D01*
X16289643Y-10590357D01*
X16289643Y-10333214D01*
X16675357Y-10633214D02*
X16675357Y-10333214D01*
X16775357Y-10547500D01*
X16875357Y-10333214D01*
X16875357Y-10633214D01*
X17146786Y-10633214D02*
X17146786Y-10476072D01*
X17132500Y-10447500D01*
X17103929Y-10433214D01*
X17046786Y-10433214D01*
X17018214Y-10447500D01*
X17146786Y-10618929D02*
X17118214Y-10633214D01*
X17046786Y-10633214D01*
X17018214Y-10618929D01*
X17003929Y-10590357D01*
X17003929Y-10561786D01*
X17018214Y-10533214D01*
X17046786Y-10518929D01*
X17118214Y-10518929D01*
X17146786Y-10504643D01*
X17289643Y-10433214D02*
X17289643Y-10733214D01*
X17289643Y-10447500D02*
X17318214Y-10433214D01*
X17375357Y-10433214D01*
X17403929Y-10447500D01*
X17418214Y-10461786D01*
X17432500Y-10490357D01*
X17432500Y-10576072D01*
X17418214Y-10604643D01*
X17403929Y-10618929D01*
X17375357Y-10633214D01*
X17318214Y-10633214D01*
X17289643Y-10618929D01*
X17561071Y-10604643D02*
X17575357Y-10618929D01*
X17561071Y-10633214D01*
X17546786Y-10618929D01*
X17561071Y-10604643D01*
X17561071Y-10633214D01*
X17561071Y-10447500D02*
X17575357Y-10461786D01*
X17561071Y-10476072D01*
X17546786Y-10461786D01*
X17561071Y-10447500D01*
X17561071Y-10476072D01*
X15192500Y-11107500D02*
X15232500Y-11147500D01*
X15232500Y-11107500D02*
X15192500Y-11147500D01*
X15561071Y-10963214D02*
X15589643Y-10963214D01*
X15618214Y-10977500D01*
X15632500Y-10991786D01*
X15646786Y-11020357D01*
X15661071Y-11077500D01*
X15661071Y-11148929D01*
X15646786Y-11206071D01*
X15632500Y-11234643D01*
X15618214Y-11248929D01*
X15589643Y-11263214D01*
X15561071Y-11263214D01*
X15532500Y-11248929D01*
X15518214Y-11234643D01*
X15503928Y-11206071D01*
X15489643Y-11148929D01*
X15489643Y-11077500D01*
X15503928Y-11020357D01*
X15518214Y-10991786D01*
X15532500Y-10977500D01*
X15561071Y-10963214D01*
X15789643Y-11234643D02*
X15803928Y-11248929D01*
X15789643Y-11263214D01*
X15775357Y-11248929D01*
X15789643Y-11234643D01*
X15789643Y-11263214D01*
X16061071Y-11063214D02*
X16061071Y-11263214D01*
X15989643Y-10948929D02*
X15918214Y-11163214D01*
X16103928Y-11163214D01*
X16275357Y-10963214D02*
X16303928Y-10963214D01*
X16332500Y-10977500D01*
X16346786Y-10991786D01*
X16361071Y-11020357D01*
X16375357Y-11077500D01*
X16375357Y-11148929D01*
X16361071Y-11206071D01*
X16346786Y-11234643D01*
X16332500Y-11248929D01*
X16303928Y-11263214D01*
X16275357Y-11263214D01*
X16246786Y-11248929D01*
X16232500Y-11234643D01*
X16218214Y-11206071D01*
X16203928Y-11148929D01*
X16203928Y-11077500D01*
X16218214Y-11020357D01*
X16232500Y-10991786D01*
X16246786Y-10977500D01*
X16275357Y-10963214D01*
X16503928Y-11263214D02*
X16503928Y-11063214D01*
X16503928Y-11091786D02*
X16518214Y-11077500D01*
X16546786Y-11063214D01*
X16589643Y-11063214D01*
X16618214Y-11077500D01*
X16632500Y-11106072D01*
X16632500Y-11263214D01*
X16632500Y-11106072D02*
X16646786Y-11077500D01*
X16675357Y-11063214D01*
X16718214Y-11063214D01*
X16746786Y-11077500D01*
X16761071Y-11106072D01*
X16761071Y-11263214D01*
X16903929Y-11263214D02*
X16903929Y-11063214D01*
X16903929Y-11091786D02*
X16918214Y-11077500D01*
X16946786Y-11063214D01*
X16989643Y-11063214D01*
X17018214Y-11077500D01*
X17032500Y-11106072D01*
X17032500Y-11263214D01*
X17032500Y-11106072D02*
X17046786Y-11077500D01*
X17075357Y-11063214D01*
X17118214Y-11063214D01*
X17146786Y-11077500D01*
X17161071Y-11106072D01*
X17161071Y-11263214D01*
X17746786Y-10948929D02*
X17489643Y-11334643D01*
X18132500Y-10963214D02*
X18161071Y-10963214D01*
X18189643Y-10977500D01*
X18203928Y-10991786D01*
X18218214Y-11020357D01*
X18232500Y-11077500D01*
X18232500Y-11148929D01*
X18218214Y-11206071D01*
X18203928Y-11234643D01*
X18189643Y-11248929D01*
X18161071Y-11263214D01*
X18132500Y-11263214D01*
X18103928Y-11248929D01*
X18089643Y-11234643D01*
X18075357Y-11206071D01*
X18061071Y-11148929D01*
X18061071Y-11077500D01*
X18075357Y-11020357D01*
X18089643Y-10991786D01*
X18103928Y-10977500D01*
X18132500Y-10963214D01*
X18361071Y-11234643D02*
X18375357Y-11248929D01*
X18361071Y-11263214D01*
X18346786Y-11248929D01*
X18361071Y-11234643D01*
X18361071Y-11263214D01*
X18561071Y-10963214D02*
X18589643Y-10963214D01*
X18618214Y-10977500D01*
X18632500Y-10991786D01*
X18646786Y-11020357D01*
X18661071Y-11077500D01*
X18661071Y-11148929D01*
X18646786Y-11206071D01*
X18632500Y-11234643D01*
X18618214Y-11248929D01*
X18589643Y-11263214D01*
X18561071Y-11263214D01*
X18532500Y-11248929D01*
X18518214Y-11234643D01*
X18503928Y-11206071D01*
X18489643Y-11148929D01*
X18489643Y-11077500D01*
X18503928Y-11020357D01*
X18518214Y-10991786D01*
X18532500Y-10977500D01*
X18561071Y-10963214D01*
X18946786Y-11263214D02*
X18775357Y-11263214D01*
X18861071Y-11263214D02*
X18861071Y-10963214D01*
X18832500Y-11006072D01*
X18803928Y-11034643D01*
X18775357Y-11048929D01*
X19203928Y-10963214D02*
X19146786Y-10963214D01*
X19118214Y-10977500D01*
X19103928Y-10991786D01*
X19075357Y-11034643D01*
X19061071Y-11091786D01*
X19061071Y-11206071D01*
X19075357Y-11234643D01*
X19089643Y-11248929D01*
X19118214Y-11263214D01*
X19175357Y-11263214D01*
X19203928Y-11248929D01*
X19218214Y-11234643D01*
X19232500Y-11206071D01*
X19232500Y-11134643D01*
X19218214Y-11106072D01*
X19203928Y-11091786D01*
X19175357Y-11077500D01*
X19118214Y-11077500D01*
X19089643Y-11091786D01*
X19075357Y-11106072D01*
X19061071Y-11134643D01*
X19346786Y-10963214D02*
X19346786Y-11020357D01*
X19461071Y-10963214D02*
X19461071Y-11020357D01*
X19903928Y-11377500D02*
X19889643Y-11363214D01*
X19861071Y-11320357D01*
X19846786Y-11291786D01*
X19832500Y-11248929D01*
X19818214Y-11177500D01*
X19818214Y-11120357D01*
X19832500Y-11048929D01*
X19846786Y-11006072D01*
X19861071Y-10977500D01*
X19889643Y-10934643D01*
X19903928Y-10920357D01*
X20175357Y-11263214D02*
X20003928Y-11263214D01*
X20089643Y-11263214D02*
X20089643Y-10963214D01*
X20061071Y-11006072D01*
X20032500Y-11034643D01*
X20003928Y-11048929D01*
X20461071Y-11263214D02*
X20289643Y-11263214D01*
X20375357Y-11263214D02*
X20375357Y-10963214D01*
X20346786Y-11006072D01*
X20318214Y-11034643D01*
X20289643Y-11048929D01*
X20818214Y-11263214D02*
X20818214Y-10963214D01*
X20946786Y-11263214D02*
X20946786Y-11106072D01*
X20932500Y-11077500D01*
X20903928Y-11063214D01*
X20861071Y-11063214D01*
X20832500Y-11077500D01*
X20818214Y-11091786D01*
X21132500Y-11263214D02*
X21103928Y-11248929D01*
X21089643Y-11234643D01*
X21075357Y-11206071D01*
X21075357Y-11120357D01*
X21089643Y-11091786D01*
X21103928Y-11077500D01*
X21132500Y-11063214D01*
X21175357Y-11063214D01*
X21203928Y-11077500D01*
X21218214Y-11091786D01*
X21232500Y-11120357D01*
X21232500Y-11206071D01*
X21218214Y-11234643D01*
X21203928Y-11248929D01*
X21175357Y-11263214D01*
X21132500Y-11263214D01*
X21403928Y-11263214D02*
X21375357Y-11248929D01*
X21361071Y-11220357D01*
X21361071Y-10963214D01*
X21632500Y-11248929D02*
X21603929Y-11263214D01*
X21546786Y-11263214D01*
X21518214Y-11248929D01*
X21503929Y-11220357D01*
X21503929Y-11106072D01*
X21518214Y-11077500D01*
X21546786Y-11063214D01*
X21603929Y-11063214D01*
X21632500Y-11077500D01*
X21646786Y-11106072D01*
X21646786Y-11134643D01*
X21503929Y-11163214D01*
X21761071Y-11248929D02*
X21789643Y-11263214D01*
X21846786Y-11263214D01*
X21875357Y-11248929D01*
X21889643Y-11220357D01*
X21889643Y-11206071D01*
X21875357Y-11177500D01*
X21846786Y-11163214D01*
X21803929Y-11163214D01*
X21775357Y-11148929D01*
X21761071Y-11120357D01*
X21761071Y-11106072D01*
X21775357Y-11077500D01*
X21803929Y-11063214D01*
X21846786Y-11063214D01*
X21875357Y-11077500D01*
X21989643Y-11377500D02*
X22003929Y-11363214D01*
X22032500Y-11320357D01*
X22046786Y-11291786D01*
X22061071Y-11248929D01*
X22075357Y-11177500D01*
X22075357Y-11120357D01*
X22061071Y-11048929D01*
X22046786Y-11006072D01*
X22032500Y-10977500D01*
X22003929Y-10934643D01*
X21989643Y-10920357D01*
X15232500Y-11523500D02*
G75*
G03X15232500Y-11523500I-40000J0D01*
G01*
X15561071Y-11359214D02*
X15589643Y-11359214D01*
X15618214Y-11373500D01*
X15632500Y-11387786D01*
X15646786Y-11416357D01*
X15661071Y-11473500D01*
X15661071Y-11544929D01*
X15646786Y-11602071D01*
X15632500Y-11630643D01*
X15618214Y-11644929D01*
X15589643Y-11659214D01*
X15561071Y-11659214D01*
X15532500Y-11644929D01*
X15518214Y-11630643D01*
X15503928Y-11602071D01*
X15489643Y-11544929D01*
X15489643Y-11473500D01*
X15503928Y-11416357D01*
X15518214Y-11387786D01*
X15532500Y-11373500D01*
X15561071Y-11359214D01*
X15789643Y-11630643D02*
X15803928Y-11644929D01*
X15789643Y-11659214D01*
X15775357Y-11644929D01*
X15789643Y-11630643D01*
X15789643Y-11659214D01*
X15975357Y-11487786D02*
X15946786Y-11473500D01*
X15932500Y-11459214D01*
X15918214Y-11430643D01*
X15918214Y-11416357D01*
X15932500Y-11387786D01*
X15946786Y-11373500D01*
X15975357Y-11359214D01*
X16032500Y-11359214D01*
X16061071Y-11373500D01*
X16075357Y-11387786D01*
X16089643Y-11416357D01*
X16089643Y-11430643D01*
X16075357Y-11459214D01*
X16061071Y-11473500D01*
X16032500Y-11487786D01*
X15975357Y-11487786D01*
X15946786Y-11502071D01*
X15932500Y-11516357D01*
X15918214Y-11544929D01*
X15918214Y-11602071D01*
X15932500Y-11630643D01*
X15946786Y-11644929D01*
X15975357Y-11659214D01*
X16032500Y-11659214D01*
X16061071Y-11644929D01*
X16075357Y-11630643D01*
X16089643Y-11602071D01*
X16089643Y-11544929D01*
X16075357Y-11516357D01*
X16061071Y-11502071D01*
X16032500Y-11487786D01*
X16275357Y-11359214D02*
X16303928Y-11359214D01*
X16332500Y-11373500D01*
X16346786Y-11387786D01*
X16361071Y-11416357D01*
X16375357Y-11473500D01*
X16375357Y-11544929D01*
X16361071Y-11602071D01*
X16346786Y-11630643D01*
X16332500Y-11644929D01*
X16303928Y-11659214D01*
X16275357Y-11659214D01*
X16246786Y-11644929D01*
X16232500Y-11630643D01*
X16218214Y-11602071D01*
X16203928Y-11544929D01*
X16203928Y-11473500D01*
X16218214Y-11416357D01*
X16232500Y-11387786D01*
X16246786Y-11373500D01*
X16275357Y-11359214D01*
X16503928Y-11659214D02*
X16503928Y-11459214D01*
X16503928Y-11487786D02*
X16518214Y-11473500D01*
X16546786Y-11459214D01*
X16589643Y-11459214D01*
X16618214Y-11473500D01*
X16632500Y-11502071D01*
X16632500Y-11659214D01*
X16632500Y-11502071D02*
X16646786Y-11473500D01*
X16675357Y-11459214D01*
X16718214Y-11459214D01*
X16746786Y-11473500D01*
X16761071Y-11502071D01*
X16761071Y-11659214D01*
X16903929Y-11659214D02*
X16903929Y-11459214D01*
X16903929Y-11487786D02*
X16918214Y-11473500D01*
X16946786Y-11459214D01*
X16989643Y-11459214D01*
X17018214Y-11473500D01*
X17032500Y-11502071D01*
X17032500Y-11659214D01*
X17032500Y-11502071D02*
X17046786Y-11473500D01*
X17075357Y-11459214D01*
X17118214Y-11459214D01*
X17146786Y-11473500D01*
X17161071Y-11502071D01*
X17161071Y-11659214D01*
X17746786Y-11344929D02*
X17489643Y-11730643D01*
X18132500Y-11359214D02*
X18161071Y-11359214D01*
X18189643Y-11373500D01*
X18203928Y-11387786D01*
X18218214Y-11416357D01*
X18232500Y-11473500D01*
X18232500Y-11544929D01*
X18218214Y-11602071D01*
X18203928Y-11630643D01*
X18189643Y-11644929D01*
X18161071Y-11659214D01*
X18132500Y-11659214D01*
X18103928Y-11644929D01*
X18089643Y-11630643D01*
X18075357Y-11602071D01*
X18061071Y-11544929D01*
X18061071Y-11473500D01*
X18075357Y-11416357D01*
X18089643Y-11387786D01*
X18103928Y-11373500D01*
X18132500Y-11359214D01*
X18361071Y-11630643D02*
X18375357Y-11644929D01*
X18361071Y-11659214D01*
X18346786Y-11644929D01*
X18361071Y-11630643D01*
X18361071Y-11659214D01*
X18561071Y-11359214D02*
X18589643Y-11359214D01*
X18618214Y-11373500D01*
X18632500Y-11387786D01*
X18646786Y-11416357D01*
X18661071Y-11473500D01*
X18661071Y-11544929D01*
X18646786Y-11602071D01*
X18632500Y-11630643D01*
X18618214Y-11644929D01*
X18589643Y-11659214D01*
X18561071Y-11659214D01*
X18532500Y-11644929D01*
X18518214Y-11630643D01*
X18503928Y-11602071D01*
X18489643Y-11544929D01*
X18489643Y-11473500D01*
X18503928Y-11416357D01*
X18518214Y-11387786D01*
X18532500Y-11373500D01*
X18561071Y-11359214D01*
X18761071Y-11359214D02*
X18946786Y-11359214D01*
X18846786Y-11473500D01*
X18889643Y-11473500D01*
X18918214Y-11487786D01*
X18932500Y-11502071D01*
X18946786Y-11530643D01*
X18946786Y-11602071D01*
X18932500Y-11630643D01*
X18918214Y-11644929D01*
X18889643Y-11659214D01*
X18803928Y-11659214D01*
X18775357Y-11644929D01*
X18761071Y-11630643D01*
X19232500Y-11659214D02*
X19061071Y-11659214D01*
X19146786Y-11659214D02*
X19146786Y-11359214D01*
X19118214Y-11402071D01*
X19089643Y-11430643D01*
X19061071Y-11444929D01*
X19346786Y-11359214D02*
X19346786Y-11416357D01*
X19461071Y-11359214D02*
X19461071Y-11416357D01*
X19903928Y-11773500D02*
X19889643Y-11759214D01*
X19861071Y-11716357D01*
X19846786Y-11687786D01*
X19832500Y-11644929D01*
X19818214Y-11573500D01*
X19818214Y-11516357D01*
X19832500Y-11444929D01*
X19846786Y-11402071D01*
X19861071Y-11373500D01*
X19889643Y-11330643D01*
X19903928Y-11316357D01*
X19989643Y-11359214D02*
X20175357Y-11359214D01*
X20075357Y-11473500D01*
X20118214Y-11473500D01*
X20146786Y-11487786D01*
X20161071Y-11502071D01*
X20175357Y-11530643D01*
X20175357Y-11602071D01*
X20161071Y-11630643D01*
X20146786Y-11644929D01*
X20118214Y-11659214D01*
X20032500Y-11659214D01*
X20003928Y-11644929D01*
X19989643Y-11630643D01*
X20532500Y-11659214D02*
X20532500Y-11359214D01*
X20661071Y-11659214D02*
X20661071Y-11502071D01*
X20646786Y-11473500D01*
X20618214Y-11459214D01*
X20575357Y-11459214D01*
X20546786Y-11473500D01*
X20532500Y-11487786D01*
X20846786Y-11659214D02*
X20818214Y-11644929D01*
X20803928Y-11630643D01*
X20789643Y-11602071D01*
X20789643Y-11516357D01*
X20803928Y-11487786D01*
X20818214Y-11473500D01*
X20846786Y-11459214D01*
X20889643Y-11459214D01*
X20918214Y-11473500D01*
X20932500Y-11487786D01*
X20946786Y-11516357D01*
X20946786Y-11602071D01*
X20932500Y-11630643D01*
X20918214Y-11644929D01*
X20889643Y-11659214D01*
X20846786Y-11659214D01*
X21118214Y-11659214D02*
X21089643Y-11644929D01*
X21075357Y-11616357D01*
X21075357Y-11359214D01*
X21346786Y-11644929D02*
X21318214Y-11659214D01*
X21261071Y-11659214D01*
X21232500Y-11644929D01*
X21218214Y-11616357D01*
X21218214Y-11502071D01*
X21232500Y-11473500D01*
X21261071Y-11459214D01*
X21318214Y-11459214D01*
X21346786Y-11473500D01*
X21361071Y-11502071D01*
X21361071Y-11530643D01*
X21218214Y-11559214D01*
X21475357Y-11644929D02*
X21503929Y-11659214D01*
X21561071Y-11659214D01*
X21589643Y-11644929D01*
X21603929Y-11616357D01*
X21603929Y-11602071D01*
X21589643Y-11573500D01*
X21561071Y-11559214D01*
X21518214Y-11559214D01*
X21489643Y-11544929D01*
X21475357Y-11516357D01*
X21475357Y-11502071D01*
X21489643Y-11473500D01*
X21518214Y-11459214D01*
X21561071Y-11459214D01*
X21589643Y-11473500D01*
X21703928Y-11773500D02*
X21718214Y-11759214D01*
X21746786Y-11716357D01*
X21761071Y-11687786D01*
X21775357Y-11644929D01*
X21789643Y-11573500D01*
X21789643Y-11516357D01*
X21775357Y-11444929D01*
X21761071Y-11402071D01*
X21746786Y-11373500D01*
X21718214Y-11330643D01*
X21703928Y-11316357D01*
X15182500Y-11869500D02*
X15182500Y-11969500D01*
X15132500Y-11919500D02*
X15232500Y-11919500D01*
X15661071Y-12055214D02*
X15489643Y-12055214D01*
X15575357Y-12055214D02*
X15575357Y-11755214D01*
X15546786Y-11798071D01*
X15518214Y-11826643D01*
X15489643Y-11840929D01*
X15789643Y-12026643D02*
X15803928Y-12040929D01*
X15789643Y-12055214D01*
X15775357Y-12040929D01*
X15789643Y-12026643D01*
X15789643Y-12055214D01*
X15989643Y-11755214D02*
X16018214Y-11755214D01*
X16046786Y-11769500D01*
X16061071Y-11783786D01*
X16075357Y-11812357D01*
X16089643Y-11869500D01*
X16089643Y-11940929D01*
X16075357Y-11998071D01*
X16061071Y-12026643D01*
X16046786Y-12040929D01*
X16018214Y-12055214D01*
X15989643Y-12055214D01*
X15961071Y-12040929D01*
X15946786Y-12026643D01*
X15932500Y-11998071D01*
X15918214Y-11940929D01*
X15918214Y-11869500D01*
X15932500Y-11812357D01*
X15946786Y-11783786D01*
X15961071Y-11769500D01*
X15989643Y-11755214D01*
X16275357Y-11755214D02*
X16303928Y-11755214D01*
X16332500Y-11769500D01*
X16346786Y-11783786D01*
X16361071Y-11812357D01*
X16375357Y-11869500D01*
X16375357Y-11940929D01*
X16361071Y-11998071D01*
X16346786Y-12026643D01*
X16332500Y-12040929D01*
X16303928Y-12055214D01*
X16275357Y-12055214D01*
X16246786Y-12040929D01*
X16232500Y-12026643D01*
X16218214Y-11998071D01*
X16203928Y-11940929D01*
X16203928Y-11869500D01*
X16218214Y-11812357D01*
X16232500Y-11783786D01*
X16246786Y-11769500D01*
X16275357Y-11755214D01*
X16503928Y-12055214D02*
X16503928Y-11855214D01*
X16503928Y-11883786D02*
X16518214Y-11869500D01*
X16546786Y-11855214D01*
X16589643Y-11855214D01*
X16618214Y-11869500D01*
X16632500Y-11898071D01*
X16632500Y-12055214D01*
X16632500Y-11898071D02*
X16646786Y-11869500D01*
X16675357Y-11855214D01*
X16718214Y-11855214D01*
X16746786Y-11869500D01*
X16761071Y-11898071D01*
X16761071Y-12055214D01*
X16903929Y-12055214D02*
X16903929Y-11855214D01*
X16903929Y-11883786D02*
X16918214Y-11869500D01*
X16946786Y-11855214D01*
X16989643Y-11855214D01*
X17018214Y-11869500D01*
X17032500Y-11898071D01*
X17032500Y-12055214D01*
X17032500Y-11898071D02*
X17046786Y-11869500D01*
X17075357Y-11855214D01*
X17118214Y-11855214D01*
X17146786Y-11869500D01*
X17161071Y-11898071D01*
X17161071Y-12055214D01*
X17746786Y-11740929D02*
X17489643Y-12126643D01*
X18132500Y-11755214D02*
X18161071Y-11755214D01*
X18189643Y-11769500D01*
X18203928Y-11783786D01*
X18218214Y-11812357D01*
X18232500Y-11869500D01*
X18232500Y-11940929D01*
X18218214Y-11998071D01*
X18203928Y-12026643D01*
X18189643Y-12040929D01*
X18161071Y-12055214D01*
X18132500Y-12055214D01*
X18103928Y-12040929D01*
X18089643Y-12026643D01*
X18075357Y-11998071D01*
X18061071Y-11940929D01*
X18061071Y-11869500D01*
X18075357Y-11812357D01*
X18089643Y-11783786D01*
X18103928Y-11769500D01*
X18132500Y-11755214D01*
X18361071Y-12026643D02*
X18375357Y-12040929D01*
X18361071Y-12055214D01*
X18346786Y-12040929D01*
X18361071Y-12026643D01*
X18361071Y-12055214D01*
X18561071Y-11755214D02*
X18589643Y-11755214D01*
X18618214Y-11769500D01*
X18632500Y-11783786D01*
X18646786Y-11812357D01*
X18661071Y-11869500D01*
X18661071Y-11940929D01*
X18646786Y-11998071D01*
X18632500Y-12026643D01*
X18618214Y-12040929D01*
X18589643Y-12055214D01*
X18561071Y-12055214D01*
X18532500Y-12040929D01*
X18518214Y-12026643D01*
X18503928Y-11998071D01*
X18489643Y-11940929D01*
X18489643Y-11869500D01*
X18503928Y-11812357D01*
X18518214Y-11783786D01*
X18532500Y-11769500D01*
X18561071Y-11755214D01*
X18761071Y-11755214D02*
X18946786Y-11755214D01*
X18846786Y-11869500D01*
X18889643Y-11869500D01*
X18918214Y-11883786D01*
X18932500Y-11898071D01*
X18946786Y-11926643D01*
X18946786Y-11998071D01*
X18932500Y-12026643D01*
X18918214Y-12040929D01*
X18889643Y-12055214D01*
X18803928Y-12055214D01*
X18775357Y-12040929D01*
X18761071Y-12026643D01*
X19089643Y-12055214D02*
X19146786Y-12055214D01*
X19175357Y-12040929D01*
X19189643Y-12026643D01*
X19218214Y-11983786D01*
X19232500Y-11926643D01*
X19232500Y-11812357D01*
X19218214Y-11783786D01*
X19203928Y-11769500D01*
X19175357Y-11755214D01*
X19118214Y-11755214D01*
X19089643Y-11769500D01*
X19075357Y-11783786D01*
X19061071Y-11812357D01*
X19061071Y-11883786D01*
X19075357Y-11912357D01*
X19089643Y-11926643D01*
X19118214Y-11940929D01*
X19175357Y-11940929D01*
X19203928Y-11926643D01*
X19218214Y-11912357D01*
X19232500Y-11883786D01*
X19346786Y-11755214D02*
X19346786Y-11812357D01*
X19461071Y-11755214D02*
X19461071Y-11812357D01*
X19903928Y-12169500D02*
X19889643Y-12155214D01*
X19861071Y-12112357D01*
X19846786Y-12083786D01*
X19832500Y-12040929D01*
X19818214Y-11969500D01*
X19818214Y-11912357D01*
X19832500Y-11840929D01*
X19846786Y-11798071D01*
X19861071Y-11769500D01*
X19889643Y-11726643D01*
X19903928Y-11712357D01*
X20175357Y-12055214D02*
X20003928Y-12055214D01*
X20089643Y-12055214D02*
X20089643Y-11755214D01*
X20061071Y-11798071D01*
X20032500Y-11826643D01*
X20003928Y-11840929D01*
X20361071Y-11755214D02*
X20389643Y-11755214D01*
X20418214Y-11769500D01*
X20432500Y-11783786D01*
X20446786Y-11812357D01*
X20461071Y-11869500D01*
X20461071Y-11940929D01*
X20446786Y-11998071D01*
X20432500Y-12026643D01*
X20418214Y-12040929D01*
X20389643Y-12055214D01*
X20361071Y-12055214D01*
X20332500Y-12040929D01*
X20318214Y-12026643D01*
X20303928Y-11998071D01*
X20289643Y-11940929D01*
X20289643Y-11869500D01*
X20303928Y-11812357D01*
X20318214Y-11783786D01*
X20332500Y-11769500D01*
X20361071Y-11755214D01*
X20818214Y-12055214D02*
X20818214Y-11755214D01*
X20946786Y-12055214D02*
X20946786Y-11898071D01*
X20932500Y-11869500D01*
X20903928Y-11855214D01*
X20861071Y-11855214D01*
X20832500Y-11869500D01*
X20818214Y-11883786D01*
X21132500Y-12055214D02*
X21103928Y-12040929D01*
X21089643Y-12026643D01*
X21075357Y-11998071D01*
X21075357Y-11912357D01*
X21089643Y-11883786D01*
X21103928Y-11869500D01*
X21132500Y-11855214D01*
X21175357Y-11855214D01*
X21203928Y-11869500D01*
X21218214Y-11883786D01*
X21232500Y-11912357D01*
X21232500Y-11998071D01*
X21218214Y-12026643D01*
X21203928Y-12040929D01*
X21175357Y-12055214D01*
X21132500Y-12055214D01*
X21403928Y-12055214D02*
X21375357Y-12040929D01*
X21361071Y-12012357D01*
X21361071Y-11755214D01*
X21632500Y-12040929D02*
X21603929Y-12055214D01*
X21546786Y-12055214D01*
X21518214Y-12040929D01*
X21503929Y-12012357D01*
X21503929Y-11898071D01*
X21518214Y-11869500D01*
X21546786Y-11855214D01*
X21603929Y-11855214D01*
X21632500Y-11869500D01*
X21646786Y-11898071D01*
X21646786Y-11926643D01*
X21503929Y-11955214D01*
X21761071Y-12040929D02*
X21789643Y-12055214D01*
X21846786Y-12055214D01*
X21875357Y-12040929D01*
X21889643Y-12012357D01*
X21889643Y-11998071D01*
X21875357Y-11969500D01*
X21846786Y-11955214D01*
X21803929Y-11955214D01*
X21775357Y-11940929D01*
X21761071Y-11912357D01*
X21761071Y-11898071D01*
X21775357Y-11869500D01*
X21803929Y-11855214D01*
X21846786Y-11855214D01*
X21875357Y-11869500D01*
X21989643Y-12169500D02*
X22003929Y-12155214D01*
X22032500Y-12112357D01*
X22046786Y-12083786D01*
X22061071Y-12040929D01*
X22075357Y-11969500D01*
X22075357Y-11912357D01*
X22061071Y-11840929D01*
X22046786Y-11798071D01*
X22032500Y-11769500D01*
X22003929Y-11726643D01*
X21989643Y-11712357D01*
X15188567Y-12421567D02*
X15188567Y-12209433D01*
X14976433Y-12209433D01*
X14976433Y-12421567D01*
X15188567Y-12421567D01*
X15475357Y-12151214D02*
X15661071Y-12151214D01*
X15561071Y-12265500D01*
X15603928Y-12265500D01*
X15632500Y-12279786D01*
X15646786Y-12294071D01*
X15661071Y-12322643D01*
X15661071Y-12394071D01*
X15646786Y-12422643D01*
X15632500Y-12436929D01*
X15603928Y-12451214D01*
X15518214Y-12451214D01*
X15489643Y-12436929D01*
X15475357Y-12422643D01*
X15789643Y-12422643D02*
X15803928Y-12436929D01*
X15789643Y-12451214D01*
X15775357Y-12436929D01*
X15789643Y-12422643D01*
X15789643Y-12451214D01*
X15989643Y-12151214D02*
X16018214Y-12151214D01*
X16046786Y-12165500D01*
X16061071Y-12179786D01*
X16075357Y-12208357D01*
X16089643Y-12265500D01*
X16089643Y-12336929D01*
X16075357Y-12394071D01*
X16061071Y-12422643D01*
X16046786Y-12436929D01*
X16018214Y-12451214D01*
X15989643Y-12451214D01*
X15961071Y-12436929D01*
X15946786Y-12422643D01*
X15932500Y-12394071D01*
X15918214Y-12336929D01*
X15918214Y-12265500D01*
X15932500Y-12208357D01*
X15946786Y-12179786D01*
X15961071Y-12165500D01*
X15989643Y-12151214D01*
X16275357Y-12151214D02*
X16303928Y-12151214D01*
X16332500Y-12165500D01*
X16346786Y-12179786D01*
X16361071Y-12208357D01*
X16375357Y-12265500D01*
X16375357Y-12336929D01*
X16361071Y-12394071D01*
X16346786Y-12422643D01*
X16332500Y-12436929D01*
X16303928Y-12451214D01*
X16275357Y-12451214D01*
X16246786Y-12436929D01*
X16232500Y-12422643D01*
X16218214Y-12394071D01*
X16203928Y-12336929D01*
X16203928Y-12265500D01*
X16218214Y-12208357D01*
X16232500Y-12179786D01*
X16246786Y-12165500D01*
X16275357Y-12151214D01*
X16503928Y-12451214D02*
X16503928Y-12251214D01*
X16503928Y-12279786D02*
X16518214Y-12265500D01*
X16546786Y-12251214D01*
X16589643Y-12251214D01*
X16618214Y-12265500D01*
X16632500Y-12294071D01*
X16632500Y-12451214D01*
X16632500Y-12294071D02*
X16646786Y-12265500D01*
X16675357Y-12251214D01*
X16718214Y-12251214D01*
X16746786Y-12265500D01*
X16761071Y-12294071D01*
X16761071Y-12451214D01*
X16903929Y-12451214D02*
X16903929Y-12251214D01*
X16903929Y-12279786D02*
X16918214Y-12265500D01*
X16946786Y-12251214D01*
X16989643Y-12251214D01*
X17018214Y-12265500D01*
X17032500Y-12294071D01*
X17032500Y-12451214D01*
X17032500Y-12294071D02*
X17046786Y-12265500D01*
X17075357Y-12251214D01*
X17118214Y-12251214D01*
X17146786Y-12265500D01*
X17161071Y-12294071D01*
X17161071Y-12451214D01*
X17746786Y-12136929D02*
X17489643Y-12522643D01*
X18132500Y-12151214D02*
X18161071Y-12151214D01*
X18189643Y-12165500D01*
X18203928Y-12179786D01*
X18218214Y-12208357D01*
X18232500Y-12265500D01*
X18232500Y-12336929D01*
X18218214Y-12394071D01*
X18203928Y-12422643D01*
X18189643Y-12436929D01*
X18161071Y-12451214D01*
X18132500Y-12451214D01*
X18103928Y-12436929D01*
X18089643Y-12422643D01*
X18075357Y-12394071D01*
X18061071Y-12336929D01*
X18061071Y-12265500D01*
X18075357Y-12208357D01*
X18089643Y-12179786D01*
X18103928Y-12165500D01*
X18132500Y-12151214D01*
X18361071Y-12422643D02*
X18375357Y-12436929D01*
X18361071Y-12451214D01*
X18346786Y-12436929D01*
X18361071Y-12422643D01*
X18361071Y-12451214D01*
X18661071Y-12451214D02*
X18489643Y-12451214D01*
X18575357Y-12451214D02*
X18575357Y-12151214D01*
X18546786Y-12194071D01*
X18518214Y-12222643D01*
X18489643Y-12236929D01*
X18946786Y-12451214D02*
X18775357Y-12451214D01*
X18861071Y-12451214D02*
X18861071Y-12151214D01*
X18832500Y-12194071D01*
X18803928Y-12222643D01*
X18775357Y-12236929D01*
X19118214Y-12279786D02*
X19089643Y-12265500D01*
X19075357Y-12251214D01*
X19061071Y-12222643D01*
X19061071Y-12208357D01*
X19075357Y-12179786D01*
X19089643Y-12165500D01*
X19118214Y-12151214D01*
X19175357Y-12151214D01*
X19203928Y-12165500D01*
X19218214Y-12179786D01*
X19232500Y-12208357D01*
X19232500Y-12222643D01*
X19218214Y-12251214D01*
X19203928Y-12265500D01*
X19175357Y-12279786D01*
X19118214Y-12279786D01*
X19089643Y-12294071D01*
X19075357Y-12308357D01*
X19061071Y-12336929D01*
X19061071Y-12394071D01*
X19075357Y-12422643D01*
X19089643Y-12436929D01*
X19118214Y-12451214D01*
X19175357Y-12451214D01*
X19203928Y-12436929D01*
X19218214Y-12422643D01*
X19232500Y-12394071D01*
X19232500Y-12336929D01*
X19218214Y-12308357D01*
X19203928Y-12294071D01*
X19175357Y-12279786D01*
X19346786Y-12151214D02*
X19346786Y-12208357D01*
X19461071Y-12151214D02*
X19461071Y-12208357D01*
X19903928Y-12565500D02*
X19889643Y-12551214D01*
X19861071Y-12508357D01*
X19846786Y-12479786D01*
X19832500Y-12436929D01*
X19818214Y-12365500D01*
X19818214Y-12308357D01*
X19832500Y-12236929D01*
X19846786Y-12194071D01*
X19861071Y-12165500D01*
X19889643Y-12122643D01*
X19903928Y-12108357D01*
X19989643Y-12151214D02*
X20175357Y-12151214D01*
X20075357Y-12265500D01*
X20118214Y-12265500D01*
X20146786Y-12279786D01*
X20161071Y-12294071D01*
X20175357Y-12322643D01*
X20175357Y-12394071D01*
X20161071Y-12422643D01*
X20146786Y-12436929D01*
X20118214Y-12451214D01*
X20032500Y-12451214D01*
X20003928Y-12436929D01*
X19989643Y-12422643D01*
X20532500Y-12451214D02*
X20532500Y-12151214D01*
X20661071Y-12451214D02*
X20661071Y-12294071D01*
X20646786Y-12265500D01*
X20618214Y-12251214D01*
X20575357Y-12251214D01*
X20546786Y-12265500D01*
X20532500Y-12279786D01*
X20846786Y-12451214D02*
X20818214Y-12436929D01*
X20803928Y-12422643D01*
X20789643Y-12394071D01*
X20789643Y-12308357D01*
X20803928Y-12279786D01*
X20818214Y-12265500D01*
X20846786Y-12251214D01*
X20889643Y-12251214D01*
X20918214Y-12265500D01*
X20932500Y-12279786D01*
X20946786Y-12308357D01*
X20946786Y-12394071D01*
X20932500Y-12422643D01*
X20918214Y-12436929D01*
X20889643Y-12451214D01*
X20846786Y-12451214D01*
X21118214Y-12451214D02*
X21089643Y-12436929D01*
X21075357Y-12408357D01*
X21075357Y-12151214D01*
X21346786Y-12436929D02*
X21318214Y-12451214D01*
X21261071Y-12451214D01*
X21232500Y-12436929D01*
X21218214Y-12408357D01*
X21218214Y-12294071D01*
X21232500Y-12265500D01*
X21261071Y-12251214D01*
X21318214Y-12251214D01*
X21346786Y-12265500D01*
X21361071Y-12294071D01*
X21361071Y-12322643D01*
X21218214Y-12351214D01*
X21475357Y-12436929D02*
X21503929Y-12451214D01*
X21561071Y-12451214D01*
X21589643Y-12436929D01*
X21603929Y-12408357D01*
X21603929Y-12394071D01*
X21589643Y-12365500D01*
X21561071Y-12351214D01*
X21518214Y-12351214D01*
X21489643Y-12336929D01*
X21475357Y-12308357D01*
X21475357Y-12294071D01*
X21489643Y-12265500D01*
X21518214Y-12251214D01*
X21561071Y-12251214D01*
X21589643Y-12265500D01*
X21703928Y-12565500D02*
X21718214Y-12551214D01*
X21746786Y-12508357D01*
X21761071Y-12479786D01*
X21775357Y-12436929D01*
X21789643Y-12365500D01*
X21789643Y-12308357D01*
X21775357Y-12236929D01*
X21761071Y-12194071D01*
X21746786Y-12165500D01*
X21718214Y-12122643D01*
X21703928Y-12108357D01*
M02*
