G04 #@! TF.FileFunction,Copper,L1,Top,Signal*
%FSLAX46Y46*%
G04 Gerber Fmt 4.6, Leading zero omitted, Abs format (unit mm)*
G04 Created by KiCad (PCBNEW 4.0.7-e1-6374~58~ubuntu16.04.1) date Sun Aug 13 09:38:41 2017*
%MOMM*%
%LPD*%
G01*
G04 APERTURE LIST*
%ADD10C,0.100000*%
%ADD11R,3.500000X3.500000*%
%ADD12R,1.500000X1.500000*%
%ADD13C,1.500000*%
%ADD14R,1.600000X1.000000*%
%ADD15R,1.000000X1.600000*%
%ADD16R,1.700000X1.700000*%
%ADD17O,1.700000X1.700000*%
%ADD18R,0.900000X0.800000*%
%ADD19R,1.300000X0.700000*%
%ADD20R,1.060000X0.650000*%
%ADD21R,1.200000X2.200000*%
%ADD22R,5.800000X6.400000*%
%ADD23R,2.750000X3.050000*%
%ADD24C,0.600000*%
%ADD25C,1.270000*%
%ADD26C,0.250000*%
%ADD27C,0.254000*%
G04 APERTURE END LIST*
D10*
D11*
X166370000Y-80010000D03*
X160370000Y-80010000D03*
X163370000Y-84710000D03*
D12*
X158750000Y-71120000D03*
D13*
X158750000Y-69120000D03*
X158750000Y-67120000D03*
D14*
X172847000Y-66723000D03*
X172847000Y-69723000D03*
X162433000Y-66850000D03*
X162433000Y-69850000D03*
X162560000Y-93750000D03*
X162560000Y-96750000D03*
D15*
X169140000Y-88900000D03*
X166140000Y-88900000D03*
D16*
X157480000Y-99060000D03*
D17*
X154940000Y-99060000D03*
X157480000Y-96520000D03*
X154940000Y-96520000D03*
X157480000Y-93980000D03*
X154940000Y-93980000D03*
X157480000Y-91440000D03*
X154940000Y-91440000D03*
X157480000Y-88900000D03*
X154940000Y-88900000D03*
D18*
X170307000Y-97033000D03*
X170307000Y-98933000D03*
X172307000Y-97983000D03*
X165767000Y-97094000D03*
X165767000Y-98994000D03*
X167767000Y-98044000D03*
D19*
X162560000Y-91120000D03*
X162560000Y-89220000D03*
X171450000Y-93030000D03*
X171450000Y-94930000D03*
X171450000Y-87889000D03*
X171450000Y-89789000D03*
D20*
X166540000Y-93030000D03*
X166540000Y-93980000D03*
X166540000Y-94930000D03*
X168740000Y-94930000D03*
X168740000Y-93030000D03*
D21*
X169920000Y-66793000D03*
X165360000Y-66793000D03*
D22*
X167640000Y-73093000D03*
D23*
X166115000Y-74768000D03*
X169165000Y-71418000D03*
X169165000Y-74768000D03*
X166115000Y-71418000D03*
D24*
X171323000Y-66723000D03*
X171323000Y-66723000D03*
X163997884Y-66797282D03*
X170180000Y-88900000D03*
X169949282Y-93020546D03*
X165224325Y-92547682D03*
X161544000Y-92202000D03*
X168398877Y-96394979D03*
X172291784Y-96984849D03*
X165364518Y-93969873D03*
X161408086Y-88353255D03*
D25*
X171323000Y-66723000D02*
X169990000Y-66723000D01*
X172847000Y-66723000D02*
X171323000Y-66723000D01*
D26*
X169990000Y-66723000D02*
X169920000Y-66793000D01*
X165750740Y-99052955D02*
X170187045Y-99052955D01*
X170187045Y-99052955D02*
X170307000Y-98933000D01*
X166540000Y-94930000D02*
X166497000Y-94869000D01*
X165735000Y-98679000D02*
X165735000Y-98933000D01*
X165735000Y-98933000D02*
X165767000Y-98994000D01*
X162650000Y-96750000D02*
X162560000Y-96750000D01*
X166370000Y-95250000D02*
X166252999Y-95367001D01*
X166252999Y-95367001D02*
X164242999Y-95367001D01*
X164242999Y-95367001D02*
X162860000Y-96750000D01*
X162860000Y-96750000D02*
X162560000Y-96750000D01*
X171010000Y-69850000D02*
X171010000Y-73000000D01*
X171010000Y-73000000D02*
X170324999Y-73685001D01*
X170324999Y-73685001D02*
X170324999Y-78364999D01*
X170324999Y-78364999D02*
X171450000Y-79490000D01*
X171450000Y-79490000D02*
X171450000Y-80010000D01*
X158750000Y-71120000D02*
X160020000Y-69850000D01*
X163370000Y-84710000D02*
X163830000Y-85090000D01*
X163830000Y-85090000D02*
X160020000Y-81280000D01*
X160020000Y-81280000D02*
X160020000Y-80010000D01*
X160020000Y-80010000D02*
X160370000Y-80010000D01*
X163370000Y-84710000D02*
X163830000Y-85090000D01*
X163830000Y-85090000D02*
X166370000Y-87630000D01*
X166370000Y-87630000D02*
X166370000Y-88900000D01*
X166370000Y-88900000D02*
X166140000Y-88900000D01*
X171450000Y-85320000D02*
X171450000Y-85090000D01*
X171450000Y-85090000D02*
X163830000Y-85090000D01*
X163830000Y-85090000D02*
X163370000Y-84710000D01*
X171450000Y-80010000D02*
X172720000Y-81280000D01*
X172720000Y-81280000D02*
X172720000Y-83820000D01*
X172720000Y-83820000D02*
X171450000Y-85090000D01*
D25*
X163945166Y-66850000D02*
X163997884Y-66797282D01*
X162433000Y-66850000D02*
X163945166Y-66850000D01*
X165360000Y-66793000D02*
X162490000Y-66793000D01*
D26*
X162490000Y-66793000D02*
X162433000Y-66850000D01*
X158845000Y-69215000D02*
X158750000Y-69120000D01*
X158750000Y-68580000D02*
X158750000Y-69120000D01*
X162560000Y-93750000D02*
X162560000Y-93980000D01*
X162560000Y-93980000D02*
X160020000Y-93980000D01*
X160020000Y-93980000D02*
X158750000Y-95250000D01*
X158750000Y-95250000D02*
X156210000Y-95250000D01*
X156210000Y-95250000D02*
X154940000Y-96520000D01*
X162560000Y-93750000D02*
X162560000Y-91120000D01*
X154940000Y-96520000D02*
X154940000Y-99060000D01*
X170180000Y-88900000D02*
X170434000Y-88900000D01*
X169140000Y-88900000D02*
X170180000Y-88900000D01*
X171831000Y-93030000D02*
X169958736Y-93030000D01*
X169958736Y-93030000D02*
X169949282Y-93020546D01*
X169939828Y-93030000D02*
X169949282Y-93020546D01*
X168740000Y-93030000D02*
X169939828Y-93030000D01*
X170434000Y-88900000D02*
X171450000Y-87884000D01*
X171450000Y-87884000D02*
X171450000Y-87889000D01*
X166540000Y-93030000D02*
X167320000Y-93030000D01*
X167320000Y-93030000D02*
X167395001Y-93105001D01*
X167395001Y-93105001D02*
X167395001Y-95515999D01*
X167395001Y-95515999D02*
X165817000Y-97094000D01*
X165817000Y-97094000D02*
X165767000Y-97094000D01*
X165317007Y-92455000D02*
X165224325Y-92547682D01*
X165760000Y-92455000D02*
X165317007Y-92455000D01*
X166540000Y-93030000D02*
X166335000Y-93030000D01*
X166335000Y-93030000D02*
X165760000Y-92455000D01*
X161544000Y-92202000D02*
X161130999Y-92615001D01*
X161130999Y-92615001D02*
X156115001Y-92615001D01*
X156115001Y-92615001D02*
X154940000Y-91440000D01*
X168740000Y-96053856D02*
X168398877Y-96394979D01*
X168740000Y-94930000D02*
X168740000Y-96053856D01*
X168740000Y-94930000D02*
X168783000Y-94869000D01*
X168783000Y-94869000D02*
X171831000Y-94869000D01*
X171831000Y-94869000D02*
X171831000Y-94930000D01*
X172307000Y-97000065D02*
X172291784Y-96984849D01*
X172307000Y-97983000D02*
X172307000Y-97000065D01*
X166440559Y-93969873D02*
X165364518Y-93969873D01*
X166555420Y-93855012D02*
X166440559Y-93969873D01*
X162560000Y-89220000D02*
X162860000Y-89220000D01*
X162860000Y-89220000D02*
X164599324Y-90959324D01*
X166540000Y-93870432D02*
X166555420Y-93855012D01*
X164599324Y-93160582D02*
X165293754Y-93855012D01*
X166540000Y-93980000D02*
X166540000Y-93870432D01*
X164599324Y-90959324D02*
X164599324Y-93160582D01*
X165293754Y-93855012D02*
X166555420Y-93855012D01*
X166540000Y-93980000D02*
X166540000Y-93680001D01*
X162260000Y-89220000D02*
X161408086Y-88368086D01*
X161408086Y-88368086D02*
X161408086Y-88353255D01*
X162560000Y-89220000D02*
X162260000Y-89220000D01*
X171450000Y-89789000D02*
X171450000Y-90389000D01*
X171450000Y-90389000D02*
X172806001Y-91745001D01*
X172806001Y-91745001D02*
X172806001Y-95540001D01*
X172806001Y-95540001D02*
X171313002Y-97033000D01*
X171313002Y-97033000D02*
X170307000Y-97033000D01*
X170307000Y-97033000D02*
X170357000Y-97033000D01*
X168596000Y-98044000D02*
X167767000Y-98044000D01*
X169607000Y-97033000D02*
X168596000Y-98044000D01*
X170307000Y-97033000D02*
X169607000Y-97033000D01*
D27*
G36*
X174498000Y-100890000D02*
X153162000Y-100890000D01*
X153162000Y-88900000D01*
X153425907Y-88900000D01*
X153538946Y-89468285D01*
X153860853Y-89950054D01*
X154190026Y-90170000D01*
X153860853Y-90389946D01*
X153538946Y-90871715D01*
X153425907Y-91440000D01*
X153538946Y-92008285D01*
X153860853Y-92490054D01*
X154190026Y-92710000D01*
X153860853Y-92929946D01*
X153538946Y-93411715D01*
X153425907Y-93980000D01*
X153538946Y-94548285D01*
X153860853Y-95030054D01*
X154190026Y-95250000D01*
X153860853Y-95469946D01*
X153538946Y-95951715D01*
X153425907Y-96520000D01*
X153538946Y-97088285D01*
X153860853Y-97570054D01*
X154180000Y-97783301D01*
X154180000Y-97796699D01*
X153860853Y-98009946D01*
X153538946Y-98491715D01*
X153425907Y-99060000D01*
X153538946Y-99628285D01*
X153860853Y-100110054D01*
X154342622Y-100431961D01*
X154910907Y-100545000D01*
X154969093Y-100545000D01*
X155537378Y-100431961D01*
X156019147Y-100110054D01*
X156019971Y-100108821D01*
X156026838Y-100145317D01*
X156165910Y-100361441D01*
X156378110Y-100506431D01*
X156630000Y-100557440D01*
X158330000Y-100557440D01*
X158565317Y-100513162D01*
X158781441Y-100374090D01*
X158926431Y-100161890D01*
X158977440Y-99910000D01*
X158977440Y-99279750D01*
X164682000Y-99279750D01*
X164682000Y-99520310D01*
X164778673Y-99753699D01*
X164957302Y-99932327D01*
X165190691Y-100029000D01*
X165481250Y-100029000D01*
X165640000Y-99870250D01*
X165640000Y-99121000D01*
X165894000Y-99121000D01*
X165894000Y-99870250D01*
X166052750Y-100029000D01*
X166343309Y-100029000D01*
X166576698Y-99932327D01*
X166755327Y-99753699D01*
X166852000Y-99520310D01*
X166852000Y-99279750D01*
X166791000Y-99218750D01*
X169222000Y-99218750D01*
X169222000Y-99459310D01*
X169318673Y-99692699D01*
X169497302Y-99871327D01*
X169730691Y-99968000D01*
X170021250Y-99968000D01*
X170180000Y-99809250D01*
X170180000Y-99060000D01*
X170434000Y-99060000D01*
X170434000Y-99809250D01*
X170592750Y-99968000D01*
X170883309Y-99968000D01*
X171116698Y-99871327D01*
X171295327Y-99692699D01*
X171392000Y-99459310D01*
X171392000Y-99218750D01*
X171233250Y-99060000D01*
X170434000Y-99060000D01*
X170180000Y-99060000D01*
X169380750Y-99060000D01*
X169222000Y-99218750D01*
X166791000Y-99218750D01*
X166693250Y-99121000D01*
X165894000Y-99121000D01*
X165640000Y-99121000D01*
X164840750Y-99121000D01*
X164682000Y-99279750D01*
X158977440Y-99279750D01*
X158977440Y-98210000D01*
X158933162Y-97974683D01*
X158794090Y-97758559D01*
X158581890Y-97613569D01*
X158514459Y-97599914D01*
X158559147Y-97570054D01*
X158881054Y-97088285D01*
X158891503Y-97035750D01*
X161125000Y-97035750D01*
X161125000Y-97376309D01*
X161221673Y-97609698D01*
X161400301Y-97788327D01*
X161633690Y-97885000D01*
X162274250Y-97885000D01*
X162433000Y-97726250D01*
X162433000Y-96877000D01*
X162687000Y-96877000D01*
X162687000Y-97726250D01*
X162845750Y-97885000D01*
X163486310Y-97885000D01*
X163719699Y-97788327D01*
X163898327Y-97609698D01*
X163995000Y-97376309D01*
X163995000Y-97035750D01*
X163836250Y-96877000D01*
X162687000Y-96877000D01*
X162433000Y-96877000D01*
X161283750Y-96877000D01*
X161125000Y-97035750D01*
X158891503Y-97035750D01*
X158994093Y-96520000D01*
X158915262Y-96123691D01*
X161125000Y-96123691D01*
X161125000Y-96464250D01*
X161283750Y-96623000D01*
X162433000Y-96623000D01*
X162433000Y-95773750D01*
X162687000Y-95773750D01*
X162687000Y-96623000D01*
X163836250Y-96623000D01*
X163995000Y-96464250D01*
X163995000Y-96123691D01*
X163898327Y-95890302D01*
X163719699Y-95711673D01*
X163486310Y-95615000D01*
X162845750Y-95615000D01*
X162687000Y-95773750D01*
X162433000Y-95773750D01*
X162274250Y-95615000D01*
X161633690Y-95615000D01*
X161400301Y-95711673D01*
X161221673Y-95890302D01*
X161125000Y-96123691D01*
X158915262Y-96123691D01*
X158887218Y-95982705D01*
X159040839Y-95952148D01*
X159287401Y-95787401D01*
X160334802Y-94740000D01*
X161352343Y-94740000D01*
X161508110Y-94846431D01*
X161760000Y-94897440D01*
X163360000Y-94897440D01*
X163595317Y-94853162D01*
X163811441Y-94714090D01*
X163956431Y-94501890D01*
X164007440Y-94250000D01*
X164007440Y-93616443D01*
X164061923Y-93697983D01*
X164429434Y-94065494D01*
X164429356Y-94155040D01*
X164571401Y-94498816D01*
X164834191Y-94762065D01*
X165177719Y-94904711D01*
X165549685Y-94905035D01*
X165682854Y-94850011D01*
X165758110Y-94901431D01*
X166010000Y-94952440D01*
X166635001Y-94952440D01*
X166635001Y-95077000D01*
X166413000Y-95077000D01*
X166413000Y-95057000D01*
X165533750Y-95057000D01*
X165375000Y-95215750D01*
X165375000Y-95381310D01*
X165471673Y-95614699D01*
X165650302Y-95793327D01*
X165883691Y-95890000D01*
X165946198Y-95890000D01*
X165789638Y-96046560D01*
X165317000Y-96046560D01*
X165081683Y-96090838D01*
X164865559Y-96229910D01*
X164720569Y-96442110D01*
X164669560Y-96694000D01*
X164669560Y-97494000D01*
X164713838Y-97729317D01*
X164852910Y-97945441D01*
X164992750Y-98040990D01*
X164957302Y-98055673D01*
X164778673Y-98234301D01*
X164682000Y-98467690D01*
X164682000Y-98708250D01*
X164840750Y-98867000D01*
X165640000Y-98867000D01*
X165640000Y-98847000D01*
X165894000Y-98847000D01*
X165894000Y-98867000D01*
X166693250Y-98867000D01*
X166779262Y-98780988D01*
X166852910Y-98895441D01*
X167065110Y-99040431D01*
X167317000Y-99091440D01*
X168217000Y-99091440D01*
X168452317Y-99047162D01*
X168668441Y-98908090D01*
X168762144Y-98770952D01*
X168886839Y-98746148D01*
X169133401Y-98581401D01*
X169222000Y-98492802D01*
X169222000Y-98647250D01*
X169380750Y-98806000D01*
X170180000Y-98806000D01*
X170180000Y-98786000D01*
X170434000Y-98786000D01*
X170434000Y-98806000D01*
X171233250Y-98806000D01*
X171319262Y-98719988D01*
X171392910Y-98834441D01*
X171605110Y-98979431D01*
X171857000Y-99030440D01*
X172757000Y-99030440D01*
X172992317Y-98986162D01*
X173208441Y-98847090D01*
X173353431Y-98634890D01*
X173404440Y-98383000D01*
X173404440Y-97583000D01*
X173360162Y-97347683D01*
X173226649Y-97140199D01*
X173226946Y-96799682D01*
X173084901Y-96455906D01*
X173024952Y-96395852D01*
X173343402Y-96077402D01*
X173508149Y-95830841D01*
X173527959Y-95731250D01*
X173566001Y-95540001D01*
X173566001Y-91745001D01*
X173508149Y-91454162D01*
X173343402Y-91207600D01*
X172627531Y-90491729D01*
X172696431Y-90390890D01*
X172747440Y-90139000D01*
X172747440Y-89439000D01*
X172703162Y-89203683D01*
X172564090Y-88987559D01*
X172351890Y-88842569D01*
X172338803Y-88839919D01*
X172551441Y-88703090D01*
X172696431Y-88490890D01*
X172747440Y-88239000D01*
X172747440Y-87539000D01*
X172703162Y-87303683D01*
X172564090Y-87087559D01*
X172351890Y-86942569D01*
X172100000Y-86891560D01*
X170800000Y-86891560D01*
X170564683Y-86935838D01*
X170348559Y-87074910D01*
X170203569Y-87287110D01*
X170152560Y-87539000D01*
X170152560Y-87723884D01*
X170104090Y-87648559D01*
X169891890Y-87503569D01*
X169640000Y-87452560D01*
X168640000Y-87452560D01*
X168404683Y-87496838D01*
X168188559Y-87635910D01*
X168043569Y-87848110D01*
X167992560Y-88100000D01*
X167992560Y-89700000D01*
X168036838Y-89935317D01*
X168175910Y-90151441D01*
X168388110Y-90296431D01*
X168640000Y-90347440D01*
X169640000Y-90347440D01*
X169875317Y-90303162D01*
X170091441Y-90164090D01*
X170152560Y-90074639D01*
X170152560Y-90139000D01*
X170196838Y-90374317D01*
X170335910Y-90590441D01*
X170548110Y-90735431D01*
X170800000Y-90786440D01*
X170819080Y-90786440D01*
X170912599Y-90926401D01*
X172018758Y-92032560D01*
X170800000Y-92032560D01*
X170564683Y-92076838D01*
X170388204Y-92190399D01*
X170136081Y-92085708D01*
X169764115Y-92085384D01*
X169592025Y-92156490D01*
X169521890Y-92108569D01*
X169270000Y-92057560D01*
X168210000Y-92057560D01*
X167974683Y-92101838D01*
X167758559Y-92240910D01*
X167671472Y-92368366D01*
X167610839Y-92327852D01*
X167577648Y-92321250D01*
X167534090Y-92253559D01*
X167321890Y-92108569D01*
X167070000Y-92057560D01*
X166437362Y-92057560D01*
X166297401Y-91917599D01*
X166050839Y-91752852D01*
X165760000Y-91695000D01*
X165608977Y-91695000D01*
X165411124Y-91612844D01*
X165359324Y-91612799D01*
X165359324Y-90959324D01*
X165301472Y-90668485D01*
X165136725Y-90421923D01*
X163900552Y-89185750D01*
X165005000Y-89185750D01*
X165005000Y-89826310D01*
X165101673Y-90059699D01*
X165280302Y-90238327D01*
X165513691Y-90335000D01*
X165854250Y-90335000D01*
X166013000Y-90176250D01*
X166013000Y-89027000D01*
X166267000Y-89027000D01*
X166267000Y-90176250D01*
X166425750Y-90335000D01*
X166766309Y-90335000D01*
X166999698Y-90238327D01*
X167178327Y-90059699D01*
X167275000Y-89826310D01*
X167275000Y-89185750D01*
X167116250Y-89027000D01*
X166267000Y-89027000D01*
X166013000Y-89027000D01*
X165163750Y-89027000D01*
X165005000Y-89185750D01*
X163900552Y-89185750D01*
X163857440Y-89142638D01*
X163857440Y-88870000D01*
X163813162Y-88634683D01*
X163674090Y-88418559D01*
X163461890Y-88273569D01*
X163210000Y-88222560D01*
X162343201Y-88222560D01*
X162343248Y-88168088D01*
X162262925Y-87973690D01*
X165005000Y-87973690D01*
X165005000Y-88614250D01*
X165163750Y-88773000D01*
X166013000Y-88773000D01*
X166013000Y-87623750D01*
X166267000Y-87623750D01*
X166267000Y-88773000D01*
X167116250Y-88773000D01*
X167275000Y-88614250D01*
X167275000Y-87973690D01*
X167178327Y-87740301D01*
X166999698Y-87561673D01*
X166766309Y-87465000D01*
X166425750Y-87465000D01*
X166267000Y-87623750D01*
X166013000Y-87623750D01*
X165854250Y-87465000D01*
X165513691Y-87465000D01*
X165280302Y-87561673D01*
X165101673Y-87740301D01*
X165005000Y-87973690D01*
X162262925Y-87973690D01*
X162201203Y-87824312D01*
X161938413Y-87561063D01*
X161594885Y-87418417D01*
X161222919Y-87418093D01*
X160879143Y-87560138D01*
X160615894Y-87822928D01*
X160473248Y-88166456D01*
X160472924Y-88538422D01*
X160614969Y-88882198D01*
X160877759Y-89145447D01*
X161221287Y-89288093D01*
X161253319Y-89288121D01*
X161262560Y-89297362D01*
X161262560Y-89570000D01*
X161306838Y-89805317D01*
X161445910Y-90021441D01*
X161658110Y-90166431D01*
X161671197Y-90169081D01*
X161458559Y-90305910D01*
X161313569Y-90518110D01*
X161262560Y-90770000D01*
X161262560Y-91306617D01*
X161015057Y-91408883D01*
X160751808Y-91671673D01*
X160675683Y-91855001D01*
X158911544Y-91855001D01*
X158994093Y-91440000D01*
X158881054Y-90871715D01*
X158559147Y-90389946D01*
X158218447Y-90162298D01*
X158361358Y-90095183D01*
X158751645Y-89666924D01*
X158921476Y-89256890D01*
X158800155Y-89027000D01*
X157607000Y-89027000D01*
X157607000Y-89047000D01*
X157353000Y-89047000D01*
X157353000Y-89027000D01*
X157333000Y-89027000D01*
X157333000Y-88773000D01*
X157353000Y-88773000D01*
X157353000Y-87579181D01*
X157607000Y-87579181D01*
X157607000Y-88773000D01*
X158800155Y-88773000D01*
X158921476Y-88543110D01*
X158751645Y-88133076D01*
X158361358Y-87704817D01*
X157836892Y-87458514D01*
X157607000Y-87579181D01*
X157353000Y-87579181D01*
X157123108Y-87458514D01*
X156598642Y-87704817D01*
X156208355Y-88133076D01*
X156208345Y-88133101D01*
X156019147Y-87849946D01*
X155537378Y-87528039D01*
X154969093Y-87415000D01*
X154910907Y-87415000D01*
X154342622Y-87528039D01*
X153860853Y-87849946D01*
X153538946Y-88331715D01*
X153425907Y-88900000D01*
X153162000Y-88900000D01*
X153162000Y-84995750D01*
X160985000Y-84995750D01*
X160985000Y-86586310D01*
X161081673Y-86819699D01*
X161260302Y-86998327D01*
X161493691Y-87095000D01*
X163084250Y-87095000D01*
X163243000Y-86936250D01*
X163243000Y-84837000D01*
X163497000Y-84837000D01*
X163497000Y-86936250D01*
X163655750Y-87095000D01*
X165246309Y-87095000D01*
X165479698Y-86998327D01*
X165658327Y-86819699D01*
X165755000Y-86586310D01*
X165755000Y-84995750D01*
X165596250Y-84837000D01*
X163497000Y-84837000D01*
X163243000Y-84837000D01*
X161143750Y-84837000D01*
X160985000Y-84995750D01*
X153162000Y-84995750D01*
X153162000Y-80295750D01*
X157985000Y-80295750D01*
X157985000Y-81886310D01*
X158081673Y-82119699D01*
X158260302Y-82298327D01*
X158493691Y-82395000D01*
X160084250Y-82395000D01*
X160243000Y-82236250D01*
X160243000Y-80137000D01*
X160497000Y-80137000D01*
X160497000Y-82236250D01*
X160655750Y-82395000D01*
X161324696Y-82395000D01*
X161260302Y-82421673D01*
X161081673Y-82600301D01*
X160985000Y-82833690D01*
X160985000Y-84424250D01*
X161143750Y-84583000D01*
X163243000Y-84583000D01*
X163243000Y-82483750D01*
X163497000Y-82483750D01*
X163497000Y-84583000D01*
X165596250Y-84583000D01*
X165755000Y-84424250D01*
X165755000Y-82833690D01*
X165658327Y-82600301D01*
X165479698Y-82421673D01*
X165445337Y-82407440D01*
X168120000Y-82407440D01*
X168355317Y-82363162D01*
X168571441Y-82224090D01*
X168716431Y-82011890D01*
X168767440Y-81760000D01*
X168767440Y-78260000D01*
X168723162Y-78024683D01*
X168584090Y-77808559D01*
X168371890Y-77663569D01*
X168120000Y-77612560D01*
X164620000Y-77612560D01*
X164384683Y-77656838D01*
X164168559Y-77795910D01*
X164023569Y-78008110D01*
X163972560Y-78260000D01*
X163972560Y-81760000D01*
X164016838Y-81995317D01*
X164155910Y-82211441D01*
X164322109Y-82325000D01*
X163655750Y-82325000D01*
X163497000Y-82483750D01*
X163243000Y-82483750D01*
X163084250Y-82325000D01*
X162415304Y-82325000D01*
X162479698Y-82298327D01*
X162658327Y-82119699D01*
X162755000Y-81886310D01*
X162755000Y-80295750D01*
X162596250Y-80137000D01*
X160497000Y-80137000D01*
X160243000Y-80137000D01*
X158143750Y-80137000D01*
X157985000Y-80295750D01*
X153162000Y-80295750D01*
X153162000Y-78133690D01*
X157985000Y-78133690D01*
X157985000Y-79724250D01*
X158143750Y-79883000D01*
X160243000Y-79883000D01*
X160243000Y-77783750D01*
X160497000Y-77783750D01*
X160497000Y-79883000D01*
X162596250Y-79883000D01*
X162755000Y-79724250D01*
X162755000Y-78133690D01*
X162658327Y-77900301D01*
X162479698Y-77721673D01*
X162246309Y-77625000D01*
X160655750Y-77625000D01*
X160497000Y-77783750D01*
X160243000Y-77783750D01*
X160084250Y-77625000D01*
X158493691Y-77625000D01*
X158260302Y-77721673D01*
X158081673Y-77900301D01*
X157985000Y-78133690D01*
X153162000Y-78133690D01*
X153162000Y-71405750D01*
X157365000Y-71405750D01*
X157365000Y-71996309D01*
X157461673Y-72229698D01*
X157640301Y-72408327D01*
X157873690Y-72505000D01*
X158464250Y-72505000D01*
X158623000Y-72346250D01*
X158623000Y-71247000D01*
X158877000Y-71247000D01*
X158877000Y-72346250D01*
X159035750Y-72505000D01*
X159626310Y-72505000D01*
X159859699Y-72408327D01*
X160038327Y-72229698D01*
X160135000Y-71996309D01*
X160135000Y-71405750D01*
X159976250Y-71247000D01*
X158877000Y-71247000D01*
X158623000Y-71247000D01*
X157523750Y-71247000D01*
X157365000Y-71405750D01*
X153162000Y-71405750D01*
X153162000Y-67394285D01*
X157364760Y-67394285D01*
X157575169Y-67903515D01*
X157791313Y-68120036D01*
X157576539Y-68334436D01*
X157365241Y-68843298D01*
X157364760Y-69394285D01*
X157573207Y-69898767D01*
X157461673Y-70010302D01*
X157365000Y-70243691D01*
X157365000Y-70834250D01*
X157523750Y-70993000D01*
X158623000Y-70993000D01*
X158623000Y-70973000D01*
X158877000Y-70973000D01*
X158877000Y-70993000D01*
X159976250Y-70993000D01*
X160135000Y-70834250D01*
X160135000Y-70243691D01*
X160090290Y-70135750D01*
X160998000Y-70135750D01*
X160998000Y-70476309D01*
X161094673Y-70709698D01*
X161273301Y-70888327D01*
X161506690Y-70985000D01*
X162147250Y-70985000D01*
X162306000Y-70826250D01*
X162306000Y-69977000D01*
X162560000Y-69977000D01*
X162560000Y-70826250D01*
X162718750Y-70985000D01*
X163359310Y-70985000D01*
X163592699Y-70888327D01*
X163771327Y-70709698D01*
X163868000Y-70476309D01*
X163868000Y-70135750D01*
X163709250Y-69977000D01*
X162560000Y-69977000D01*
X162306000Y-69977000D01*
X161156750Y-69977000D01*
X160998000Y-70135750D01*
X160090290Y-70135750D01*
X160038327Y-70010302D01*
X159926433Y-69898407D01*
X159981126Y-69766691D01*
X164105000Y-69766691D01*
X164105000Y-73069309D01*
X164114813Y-73093000D01*
X164105000Y-73116691D01*
X164105000Y-76419309D01*
X164201673Y-76652698D01*
X164380301Y-76831327D01*
X164613690Y-76928000D01*
X167616310Y-76928000D01*
X167640000Y-76918187D01*
X167663690Y-76928000D01*
X170666310Y-76928000D01*
X170899699Y-76831327D01*
X171078327Y-76652698D01*
X171175000Y-76419309D01*
X171175000Y-73116691D01*
X171165187Y-73093000D01*
X171175000Y-73069309D01*
X171175000Y-70008750D01*
X171412000Y-70008750D01*
X171412000Y-70349309D01*
X171508673Y-70582698D01*
X171687301Y-70761327D01*
X171920690Y-70858000D01*
X172561250Y-70858000D01*
X172720000Y-70699250D01*
X172720000Y-69850000D01*
X172974000Y-69850000D01*
X172974000Y-70699250D01*
X173132750Y-70858000D01*
X173773310Y-70858000D01*
X174006699Y-70761327D01*
X174185327Y-70582698D01*
X174282000Y-70349309D01*
X174282000Y-70008750D01*
X174123250Y-69850000D01*
X172974000Y-69850000D01*
X172720000Y-69850000D01*
X171570750Y-69850000D01*
X171412000Y-70008750D01*
X171175000Y-70008750D01*
X171175000Y-69766691D01*
X171078327Y-69533302D01*
X170899699Y-69354673D01*
X170666310Y-69258000D01*
X167663690Y-69258000D01*
X167640000Y-69267813D01*
X167616310Y-69258000D01*
X164613690Y-69258000D01*
X164380301Y-69354673D01*
X164201673Y-69533302D01*
X164105000Y-69766691D01*
X159981126Y-69766691D01*
X160134759Y-69396702D01*
X160134910Y-69223691D01*
X160998000Y-69223691D01*
X160998000Y-69564250D01*
X161156750Y-69723000D01*
X162306000Y-69723000D01*
X162306000Y-68873750D01*
X162560000Y-68873750D01*
X162560000Y-69723000D01*
X163709250Y-69723000D01*
X163868000Y-69564250D01*
X163868000Y-69223691D01*
X163815395Y-69096691D01*
X171412000Y-69096691D01*
X171412000Y-69437250D01*
X171570750Y-69596000D01*
X172720000Y-69596000D01*
X172720000Y-68746750D01*
X172974000Y-68746750D01*
X172974000Y-69596000D01*
X174123250Y-69596000D01*
X174282000Y-69437250D01*
X174282000Y-69096691D01*
X174185327Y-68863302D01*
X174006699Y-68684673D01*
X173773310Y-68588000D01*
X173132750Y-68588000D01*
X172974000Y-68746750D01*
X172720000Y-68746750D01*
X172561250Y-68588000D01*
X171920690Y-68588000D01*
X171687301Y-68684673D01*
X171508673Y-68863302D01*
X171412000Y-69096691D01*
X163815395Y-69096691D01*
X163771327Y-68990302D01*
X163592699Y-68811673D01*
X163359310Y-68715000D01*
X162718750Y-68715000D01*
X162560000Y-68873750D01*
X162306000Y-68873750D01*
X162147250Y-68715000D01*
X161506690Y-68715000D01*
X161273301Y-68811673D01*
X161094673Y-68990302D01*
X160998000Y-69223691D01*
X160134910Y-69223691D01*
X160135240Y-68845715D01*
X159924831Y-68336485D01*
X159708687Y-68119964D01*
X159923461Y-67905564D01*
X160134759Y-67396702D01*
X160135240Y-66845715D01*
X159930416Y-66350000D01*
X160985560Y-66350000D01*
X160985560Y-67350000D01*
X161029838Y-67585317D01*
X161168910Y-67801441D01*
X161381110Y-67946431D01*
X161633000Y-67997440D01*
X161908249Y-67997440D01*
X161946992Y-68023327D01*
X162433000Y-68120000D01*
X163945161Y-68120000D01*
X163945166Y-68120001D01*
X164147693Y-68079715D01*
X164156838Y-68128317D01*
X164295910Y-68344441D01*
X164508110Y-68489431D01*
X164760000Y-68540440D01*
X165960000Y-68540440D01*
X166195317Y-68496162D01*
X166411441Y-68357090D01*
X166556431Y-68144890D01*
X166607440Y-67893000D01*
X166607440Y-66906417D01*
X166630000Y-66793000D01*
X166607440Y-66679583D01*
X166607440Y-65693000D01*
X168672560Y-65693000D01*
X168672560Y-67893000D01*
X168716838Y-68128317D01*
X168855910Y-68344441D01*
X169068110Y-68489431D01*
X169320000Y-68540440D01*
X170520000Y-68540440D01*
X170755317Y-68496162D01*
X170971441Y-68357090D01*
X171116431Y-68144890D01*
X171147189Y-67993000D01*
X172847000Y-67993000D01*
X173333008Y-67896327D01*
X173371751Y-67870440D01*
X173647000Y-67870440D01*
X173882317Y-67826162D01*
X174098441Y-67687090D01*
X174243431Y-67474890D01*
X174294440Y-67223000D01*
X174294440Y-66223000D01*
X174250162Y-65987683D01*
X174111090Y-65771559D01*
X173898890Y-65626569D01*
X173647000Y-65575560D01*
X173371751Y-65575560D01*
X173333008Y-65549673D01*
X172847000Y-65453000D01*
X171120149Y-65453000D01*
X170984090Y-65241559D01*
X170771890Y-65096569D01*
X170520000Y-65045560D01*
X169320000Y-65045560D01*
X169084683Y-65089838D01*
X168868559Y-65228910D01*
X168723569Y-65441110D01*
X168672560Y-65693000D01*
X166607440Y-65693000D01*
X166563162Y-65457683D01*
X166424090Y-65241559D01*
X166211890Y-65096569D01*
X165960000Y-65045560D01*
X164760000Y-65045560D01*
X164524683Y-65089838D01*
X164308559Y-65228910D01*
X164163569Y-65441110D01*
X164146986Y-65523000D01*
X162490000Y-65523000D01*
X162003992Y-65619673D01*
X161879943Y-65702560D01*
X161633000Y-65702560D01*
X161397683Y-65746838D01*
X161181559Y-65885910D01*
X161036569Y-66098110D01*
X160985560Y-66350000D01*
X159930416Y-66350000D01*
X159924831Y-66336485D01*
X159535564Y-65946539D01*
X159026702Y-65735241D01*
X158475715Y-65734760D01*
X157966485Y-65945169D01*
X157576539Y-66334436D01*
X157365241Y-66843298D01*
X157364760Y-67394285D01*
X153162000Y-67394285D01*
X153162000Y-64262000D01*
X174498000Y-64262000D01*
X174498000Y-100890000D01*
X174498000Y-100890000D01*
G37*
X174498000Y-100890000D02*
X153162000Y-100890000D01*
X153162000Y-88900000D01*
X153425907Y-88900000D01*
X153538946Y-89468285D01*
X153860853Y-89950054D01*
X154190026Y-90170000D01*
X153860853Y-90389946D01*
X153538946Y-90871715D01*
X153425907Y-91440000D01*
X153538946Y-92008285D01*
X153860853Y-92490054D01*
X154190026Y-92710000D01*
X153860853Y-92929946D01*
X153538946Y-93411715D01*
X153425907Y-93980000D01*
X153538946Y-94548285D01*
X153860853Y-95030054D01*
X154190026Y-95250000D01*
X153860853Y-95469946D01*
X153538946Y-95951715D01*
X153425907Y-96520000D01*
X153538946Y-97088285D01*
X153860853Y-97570054D01*
X154180000Y-97783301D01*
X154180000Y-97796699D01*
X153860853Y-98009946D01*
X153538946Y-98491715D01*
X153425907Y-99060000D01*
X153538946Y-99628285D01*
X153860853Y-100110054D01*
X154342622Y-100431961D01*
X154910907Y-100545000D01*
X154969093Y-100545000D01*
X155537378Y-100431961D01*
X156019147Y-100110054D01*
X156019971Y-100108821D01*
X156026838Y-100145317D01*
X156165910Y-100361441D01*
X156378110Y-100506431D01*
X156630000Y-100557440D01*
X158330000Y-100557440D01*
X158565317Y-100513162D01*
X158781441Y-100374090D01*
X158926431Y-100161890D01*
X158977440Y-99910000D01*
X158977440Y-99279750D01*
X164682000Y-99279750D01*
X164682000Y-99520310D01*
X164778673Y-99753699D01*
X164957302Y-99932327D01*
X165190691Y-100029000D01*
X165481250Y-100029000D01*
X165640000Y-99870250D01*
X165640000Y-99121000D01*
X165894000Y-99121000D01*
X165894000Y-99870250D01*
X166052750Y-100029000D01*
X166343309Y-100029000D01*
X166576698Y-99932327D01*
X166755327Y-99753699D01*
X166852000Y-99520310D01*
X166852000Y-99279750D01*
X166791000Y-99218750D01*
X169222000Y-99218750D01*
X169222000Y-99459310D01*
X169318673Y-99692699D01*
X169497302Y-99871327D01*
X169730691Y-99968000D01*
X170021250Y-99968000D01*
X170180000Y-99809250D01*
X170180000Y-99060000D01*
X170434000Y-99060000D01*
X170434000Y-99809250D01*
X170592750Y-99968000D01*
X170883309Y-99968000D01*
X171116698Y-99871327D01*
X171295327Y-99692699D01*
X171392000Y-99459310D01*
X171392000Y-99218750D01*
X171233250Y-99060000D01*
X170434000Y-99060000D01*
X170180000Y-99060000D01*
X169380750Y-99060000D01*
X169222000Y-99218750D01*
X166791000Y-99218750D01*
X166693250Y-99121000D01*
X165894000Y-99121000D01*
X165640000Y-99121000D01*
X164840750Y-99121000D01*
X164682000Y-99279750D01*
X158977440Y-99279750D01*
X158977440Y-98210000D01*
X158933162Y-97974683D01*
X158794090Y-97758559D01*
X158581890Y-97613569D01*
X158514459Y-97599914D01*
X158559147Y-97570054D01*
X158881054Y-97088285D01*
X158891503Y-97035750D01*
X161125000Y-97035750D01*
X161125000Y-97376309D01*
X161221673Y-97609698D01*
X161400301Y-97788327D01*
X161633690Y-97885000D01*
X162274250Y-97885000D01*
X162433000Y-97726250D01*
X162433000Y-96877000D01*
X162687000Y-96877000D01*
X162687000Y-97726250D01*
X162845750Y-97885000D01*
X163486310Y-97885000D01*
X163719699Y-97788327D01*
X163898327Y-97609698D01*
X163995000Y-97376309D01*
X163995000Y-97035750D01*
X163836250Y-96877000D01*
X162687000Y-96877000D01*
X162433000Y-96877000D01*
X161283750Y-96877000D01*
X161125000Y-97035750D01*
X158891503Y-97035750D01*
X158994093Y-96520000D01*
X158915262Y-96123691D01*
X161125000Y-96123691D01*
X161125000Y-96464250D01*
X161283750Y-96623000D01*
X162433000Y-96623000D01*
X162433000Y-95773750D01*
X162687000Y-95773750D01*
X162687000Y-96623000D01*
X163836250Y-96623000D01*
X163995000Y-96464250D01*
X163995000Y-96123691D01*
X163898327Y-95890302D01*
X163719699Y-95711673D01*
X163486310Y-95615000D01*
X162845750Y-95615000D01*
X162687000Y-95773750D01*
X162433000Y-95773750D01*
X162274250Y-95615000D01*
X161633690Y-95615000D01*
X161400301Y-95711673D01*
X161221673Y-95890302D01*
X161125000Y-96123691D01*
X158915262Y-96123691D01*
X158887218Y-95982705D01*
X159040839Y-95952148D01*
X159287401Y-95787401D01*
X160334802Y-94740000D01*
X161352343Y-94740000D01*
X161508110Y-94846431D01*
X161760000Y-94897440D01*
X163360000Y-94897440D01*
X163595317Y-94853162D01*
X163811441Y-94714090D01*
X163956431Y-94501890D01*
X164007440Y-94250000D01*
X164007440Y-93616443D01*
X164061923Y-93697983D01*
X164429434Y-94065494D01*
X164429356Y-94155040D01*
X164571401Y-94498816D01*
X164834191Y-94762065D01*
X165177719Y-94904711D01*
X165549685Y-94905035D01*
X165682854Y-94850011D01*
X165758110Y-94901431D01*
X166010000Y-94952440D01*
X166635001Y-94952440D01*
X166635001Y-95077000D01*
X166413000Y-95077000D01*
X166413000Y-95057000D01*
X165533750Y-95057000D01*
X165375000Y-95215750D01*
X165375000Y-95381310D01*
X165471673Y-95614699D01*
X165650302Y-95793327D01*
X165883691Y-95890000D01*
X165946198Y-95890000D01*
X165789638Y-96046560D01*
X165317000Y-96046560D01*
X165081683Y-96090838D01*
X164865559Y-96229910D01*
X164720569Y-96442110D01*
X164669560Y-96694000D01*
X164669560Y-97494000D01*
X164713838Y-97729317D01*
X164852910Y-97945441D01*
X164992750Y-98040990D01*
X164957302Y-98055673D01*
X164778673Y-98234301D01*
X164682000Y-98467690D01*
X164682000Y-98708250D01*
X164840750Y-98867000D01*
X165640000Y-98867000D01*
X165640000Y-98847000D01*
X165894000Y-98847000D01*
X165894000Y-98867000D01*
X166693250Y-98867000D01*
X166779262Y-98780988D01*
X166852910Y-98895441D01*
X167065110Y-99040431D01*
X167317000Y-99091440D01*
X168217000Y-99091440D01*
X168452317Y-99047162D01*
X168668441Y-98908090D01*
X168762144Y-98770952D01*
X168886839Y-98746148D01*
X169133401Y-98581401D01*
X169222000Y-98492802D01*
X169222000Y-98647250D01*
X169380750Y-98806000D01*
X170180000Y-98806000D01*
X170180000Y-98786000D01*
X170434000Y-98786000D01*
X170434000Y-98806000D01*
X171233250Y-98806000D01*
X171319262Y-98719988D01*
X171392910Y-98834441D01*
X171605110Y-98979431D01*
X171857000Y-99030440D01*
X172757000Y-99030440D01*
X172992317Y-98986162D01*
X173208441Y-98847090D01*
X173353431Y-98634890D01*
X173404440Y-98383000D01*
X173404440Y-97583000D01*
X173360162Y-97347683D01*
X173226649Y-97140199D01*
X173226946Y-96799682D01*
X173084901Y-96455906D01*
X173024952Y-96395852D01*
X173343402Y-96077402D01*
X173508149Y-95830841D01*
X173527959Y-95731250D01*
X173566001Y-95540001D01*
X173566001Y-91745001D01*
X173508149Y-91454162D01*
X173343402Y-91207600D01*
X172627531Y-90491729D01*
X172696431Y-90390890D01*
X172747440Y-90139000D01*
X172747440Y-89439000D01*
X172703162Y-89203683D01*
X172564090Y-88987559D01*
X172351890Y-88842569D01*
X172338803Y-88839919D01*
X172551441Y-88703090D01*
X172696431Y-88490890D01*
X172747440Y-88239000D01*
X172747440Y-87539000D01*
X172703162Y-87303683D01*
X172564090Y-87087559D01*
X172351890Y-86942569D01*
X172100000Y-86891560D01*
X170800000Y-86891560D01*
X170564683Y-86935838D01*
X170348559Y-87074910D01*
X170203569Y-87287110D01*
X170152560Y-87539000D01*
X170152560Y-87723884D01*
X170104090Y-87648559D01*
X169891890Y-87503569D01*
X169640000Y-87452560D01*
X168640000Y-87452560D01*
X168404683Y-87496838D01*
X168188559Y-87635910D01*
X168043569Y-87848110D01*
X167992560Y-88100000D01*
X167992560Y-89700000D01*
X168036838Y-89935317D01*
X168175910Y-90151441D01*
X168388110Y-90296431D01*
X168640000Y-90347440D01*
X169640000Y-90347440D01*
X169875317Y-90303162D01*
X170091441Y-90164090D01*
X170152560Y-90074639D01*
X170152560Y-90139000D01*
X170196838Y-90374317D01*
X170335910Y-90590441D01*
X170548110Y-90735431D01*
X170800000Y-90786440D01*
X170819080Y-90786440D01*
X170912599Y-90926401D01*
X172018758Y-92032560D01*
X170800000Y-92032560D01*
X170564683Y-92076838D01*
X170388204Y-92190399D01*
X170136081Y-92085708D01*
X169764115Y-92085384D01*
X169592025Y-92156490D01*
X169521890Y-92108569D01*
X169270000Y-92057560D01*
X168210000Y-92057560D01*
X167974683Y-92101838D01*
X167758559Y-92240910D01*
X167671472Y-92368366D01*
X167610839Y-92327852D01*
X167577648Y-92321250D01*
X167534090Y-92253559D01*
X167321890Y-92108569D01*
X167070000Y-92057560D01*
X166437362Y-92057560D01*
X166297401Y-91917599D01*
X166050839Y-91752852D01*
X165760000Y-91695000D01*
X165608977Y-91695000D01*
X165411124Y-91612844D01*
X165359324Y-91612799D01*
X165359324Y-90959324D01*
X165301472Y-90668485D01*
X165136725Y-90421923D01*
X163900552Y-89185750D01*
X165005000Y-89185750D01*
X165005000Y-89826310D01*
X165101673Y-90059699D01*
X165280302Y-90238327D01*
X165513691Y-90335000D01*
X165854250Y-90335000D01*
X166013000Y-90176250D01*
X166013000Y-89027000D01*
X166267000Y-89027000D01*
X166267000Y-90176250D01*
X166425750Y-90335000D01*
X166766309Y-90335000D01*
X166999698Y-90238327D01*
X167178327Y-90059699D01*
X167275000Y-89826310D01*
X167275000Y-89185750D01*
X167116250Y-89027000D01*
X166267000Y-89027000D01*
X166013000Y-89027000D01*
X165163750Y-89027000D01*
X165005000Y-89185750D01*
X163900552Y-89185750D01*
X163857440Y-89142638D01*
X163857440Y-88870000D01*
X163813162Y-88634683D01*
X163674090Y-88418559D01*
X163461890Y-88273569D01*
X163210000Y-88222560D01*
X162343201Y-88222560D01*
X162343248Y-88168088D01*
X162262925Y-87973690D01*
X165005000Y-87973690D01*
X165005000Y-88614250D01*
X165163750Y-88773000D01*
X166013000Y-88773000D01*
X166013000Y-87623750D01*
X166267000Y-87623750D01*
X166267000Y-88773000D01*
X167116250Y-88773000D01*
X167275000Y-88614250D01*
X167275000Y-87973690D01*
X167178327Y-87740301D01*
X166999698Y-87561673D01*
X166766309Y-87465000D01*
X166425750Y-87465000D01*
X166267000Y-87623750D01*
X166013000Y-87623750D01*
X165854250Y-87465000D01*
X165513691Y-87465000D01*
X165280302Y-87561673D01*
X165101673Y-87740301D01*
X165005000Y-87973690D01*
X162262925Y-87973690D01*
X162201203Y-87824312D01*
X161938413Y-87561063D01*
X161594885Y-87418417D01*
X161222919Y-87418093D01*
X160879143Y-87560138D01*
X160615894Y-87822928D01*
X160473248Y-88166456D01*
X160472924Y-88538422D01*
X160614969Y-88882198D01*
X160877759Y-89145447D01*
X161221287Y-89288093D01*
X161253319Y-89288121D01*
X161262560Y-89297362D01*
X161262560Y-89570000D01*
X161306838Y-89805317D01*
X161445910Y-90021441D01*
X161658110Y-90166431D01*
X161671197Y-90169081D01*
X161458559Y-90305910D01*
X161313569Y-90518110D01*
X161262560Y-90770000D01*
X161262560Y-91306617D01*
X161015057Y-91408883D01*
X160751808Y-91671673D01*
X160675683Y-91855001D01*
X158911544Y-91855001D01*
X158994093Y-91440000D01*
X158881054Y-90871715D01*
X158559147Y-90389946D01*
X158218447Y-90162298D01*
X158361358Y-90095183D01*
X158751645Y-89666924D01*
X158921476Y-89256890D01*
X158800155Y-89027000D01*
X157607000Y-89027000D01*
X157607000Y-89047000D01*
X157353000Y-89047000D01*
X157353000Y-89027000D01*
X157333000Y-89027000D01*
X157333000Y-88773000D01*
X157353000Y-88773000D01*
X157353000Y-87579181D01*
X157607000Y-87579181D01*
X157607000Y-88773000D01*
X158800155Y-88773000D01*
X158921476Y-88543110D01*
X158751645Y-88133076D01*
X158361358Y-87704817D01*
X157836892Y-87458514D01*
X157607000Y-87579181D01*
X157353000Y-87579181D01*
X157123108Y-87458514D01*
X156598642Y-87704817D01*
X156208355Y-88133076D01*
X156208345Y-88133101D01*
X156019147Y-87849946D01*
X155537378Y-87528039D01*
X154969093Y-87415000D01*
X154910907Y-87415000D01*
X154342622Y-87528039D01*
X153860853Y-87849946D01*
X153538946Y-88331715D01*
X153425907Y-88900000D01*
X153162000Y-88900000D01*
X153162000Y-84995750D01*
X160985000Y-84995750D01*
X160985000Y-86586310D01*
X161081673Y-86819699D01*
X161260302Y-86998327D01*
X161493691Y-87095000D01*
X163084250Y-87095000D01*
X163243000Y-86936250D01*
X163243000Y-84837000D01*
X163497000Y-84837000D01*
X163497000Y-86936250D01*
X163655750Y-87095000D01*
X165246309Y-87095000D01*
X165479698Y-86998327D01*
X165658327Y-86819699D01*
X165755000Y-86586310D01*
X165755000Y-84995750D01*
X165596250Y-84837000D01*
X163497000Y-84837000D01*
X163243000Y-84837000D01*
X161143750Y-84837000D01*
X160985000Y-84995750D01*
X153162000Y-84995750D01*
X153162000Y-80295750D01*
X157985000Y-80295750D01*
X157985000Y-81886310D01*
X158081673Y-82119699D01*
X158260302Y-82298327D01*
X158493691Y-82395000D01*
X160084250Y-82395000D01*
X160243000Y-82236250D01*
X160243000Y-80137000D01*
X160497000Y-80137000D01*
X160497000Y-82236250D01*
X160655750Y-82395000D01*
X161324696Y-82395000D01*
X161260302Y-82421673D01*
X161081673Y-82600301D01*
X160985000Y-82833690D01*
X160985000Y-84424250D01*
X161143750Y-84583000D01*
X163243000Y-84583000D01*
X163243000Y-82483750D01*
X163497000Y-82483750D01*
X163497000Y-84583000D01*
X165596250Y-84583000D01*
X165755000Y-84424250D01*
X165755000Y-82833690D01*
X165658327Y-82600301D01*
X165479698Y-82421673D01*
X165445337Y-82407440D01*
X168120000Y-82407440D01*
X168355317Y-82363162D01*
X168571441Y-82224090D01*
X168716431Y-82011890D01*
X168767440Y-81760000D01*
X168767440Y-78260000D01*
X168723162Y-78024683D01*
X168584090Y-77808559D01*
X168371890Y-77663569D01*
X168120000Y-77612560D01*
X164620000Y-77612560D01*
X164384683Y-77656838D01*
X164168559Y-77795910D01*
X164023569Y-78008110D01*
X163972560Y-78260000D01*
X163972560Y-81760000D01*
X164016838Y-81995317D01*
X164155910Y-82211441D01*
X164322109Y-82325000D01*
X163655750Y-82325000D01*
X163497000Y-82483750D01*
X163243000Y-82483750D01*
X163084250Y-82325000D01*
X162415304Y-82325000D01*
X162479698Y-82298327D01*
X162658327Y-82119699D01*
X162755000Y-81886310D01*
X162755000Y-80295750D01*
X162596250Y-80137000D01*
X160497000Y-80137000D01*
X160243000Y-80137000D01*
X158143750Y-80137000D01*
X157985000Y-80295750D01*
X153162000Y-80295750D01*
X153162000Y-78133690D01*
X157985000Y-78133690D01*
X157985000Y-79724250D01*
X158143750Y-79883000D01*
X160243000Y-79883000D01*
X160243000Y-77783750D01*
X160497000Y-77783750D01*
X160497000Y-79883000D01*
X162596250Y-79883000D01*
X162755000Y-79724250D01*
X162755000Y-78133690D01*
X162658327Y-77900301D01*
X162479698Y-77721673D01*
X162246309Y-77625000D01*
X160655750Y-77625000D01*
X160497000Y-77783750D01*
X160243000Y-77783750D01*
X160084250Y-77625000D01*
X158493691Y-77625000D01*
X158260302Y-77721673D01*
X158081673Y-77900301D01*
X157985000Y-78133690D01*
X153162000Y-78133690D01*
X153162000Y-71405750D01*
X157365000Y-71405750D01*
X157365000Y-71996309D01*
X157461673Y-72229698D01*
X157640301Y-72408327D01*
X157873690Y-72505000D01*
X158464250Y-72505000D01*
X158623000Y-72346250D01*
X158623000Y-71247000D01*
X158877000Y-71247000D01*
X158877000Y-72346250D01*
X159035750Y-72505000D01*
X159626310Y-72505000D01*
X159859699Y-72408327D01*
X160038327Y-72229698D01*
X160135000Y-71996309D01*
X160135000Y-71405750D01*
X159976250Y-71247000D01*
X158877000Y-71247000D01*
X158623000Y-71247000D01*
X157523750Y-71247000D01*
X157365000Y-71405750D01*
X153162000Y-71405750D01*
X153162000Y-67394285D01*
X157364760Y-67394285D01*
X157575169Y-67903515D01*
X157791313Y-68120036D01*
X157576539Y-68334436D01*
X157365241Y-68843298D01*
X157364760Y-69394285D01*
X157573207Y-69898767D01*
X157461673Y-70010302D01*
X157365000Y-70243691D01*
X157365000Y-70834250D01*
X157523750Y-70993000D01*
X158623000Y-70993000D01*
X158623000Y-70973000D01*
X158877000Y-70973000D01*
X158877000Y-70993000D01*
X159976250Y-70993000D01*
X160135000Y-70834250D01*
X160135000Y-70243691D01*
X160090290Y-70135750D01*
X160998000Y-70135750D01*
X160998000Y-70476309D01*
X161094673Y-70709698D01*
X161273301Y-70888327D01*
X161506690Y-70985000D01*
X162147250Y-70985000D01*
X162306000Y-70826250D01*
X162306000Y-69977000D01*
X162560000Y-69977000D01*
X162560000Y-70826250D01*
X162718750Y-70985000D01*
X163359310Y-70985000D01*
X163592699Y-70888327D01*
X163771327Y-70709698D01*
X163868000Y-70476309D01*
X163868000Y-70135750D01*
X163709250Y-69977000D01*
X162560000Y-69977000D01*
X162306000Y-69977000D01*
X161156750Y-69977000D01*
X160998000Y-70135750D01*
X160090290Y-70135750D01*
X160038327Y-70010302D01*
X159926433Y-69898407D01*
X159981126Y-69766691D01*
X164105000Y-69766691D01*
X164105000Y-73069309D01*
X164114813Y-73093000D01*
X164105000Y-73116691D01*
X164105000Y-76419309D01*
X164201673Y-76652698D01*
X164380301Y-76831327D01*
X164613690Y-76928000D01*
X167616310Y-76928000D01*
X167640000Y-76918187D01*
X167663690Y-76928000D01*
X170666310Y-76928000D01*
X170899699Y-76831327D01*
X171078327Y-76652698D01*
X171175000Y-76419309D01*
X171175000Y-73116691D01*
X171165187Y-73093000D01*
X171175000Y-73069309D01*
X171175000Y-70008750D01*
X171412000Y-70008750D01*
X171412000Y-70349309D01*
X171508673Y-70582698D01*
X171687301Y-70761327D01*
X171920690Y-70858000D01*
X172561250Y-70858000D01*
X172720000Y-70699250D01*
X172720000Y-69850000D01*
X172974000Y-69850000D01*
X172974000Y-70699250D01*
X173132750Y-70858000D01*
X173773310Y-70858000D01*
X174006699Y-70761327D01*
X174185327Y-70582698D01*
X174282000Y-70349309D01*
X174282000Y-70008750D01*
X174123250Y-69850000D01*
X172974000Y-69850000D01*
X172720000Y-69850000D01*
X171570750Y-69850000D01*
X171412000Y-70008750D01*
X171175000Y-70008750D01*
X171175000Y-69766691D01*
X171078327Y-69533302D01*
X170899699Y-69354673D01*
X170666310Y-69258000D01*
X167663690Y-69258000D01*
X167640000Y-69267813D01*
X167616310Y-69258000D01*
X164613690Y-69258000D01*
X164380301Y-69354673D01*
X164201673Y-69533302D01*
X164105000Y-69766691D01*
X159981126Y-69766691D01*
X160134759Y-69396702D01*
X160134910Y-69223691D01*
X160998000Y-69223691D01*
X160998000Y-69564250D01*
X161156750Y-69723000D01*
X162306000Y-69723000D01*
X162306000Y-68873750D01*
X162560000Y-68873750D01*
X162560000Y-69723000D01*
X163709250Y-69723000D01*
X163868000Y-69564250D01*
X163868000Y-69223691D01*
X163815395Y-69096691D01*
X171412000Y-69096691D01*
X171412000Y-69437250D01*
X171570750Y-69596000D01*
X172720000Y-69596000D01*
X172720000Y-68746750D01*
X172974000Y-68746750D01*
X172974000Y-69596000D01*
X174123250Y-69596000D01*
X174282000Y-69437250D01*
X174282000Y-69096691D01*
X174185327Y-68863302D01*
X174006699Y-68684673D01*
X173773310Y-68588000D01*
X173132750Y-68588000D01*
X172974000Y-68746750D01*
X172720000Y-68746750D01*
X172561250Y-68588000D01*
X171920690Y-68588000D01*
X171687301Y-68684673D01*
X171508673Y-68863302D01*
X171412000Y-69096691D01*
X163815395Y-69096691D01*
X163771327Y-68990302D01*
X163592699Y-68811673D01*
X163359310Y-68715000D01*
X162718750Y-68715000D01*
X162560000Y-68873750D01*
X162306000Y-68873750D01*
X162147250Y-68715000D01*
X161506690Y-68715000D01*
X161273301Y-68811673D01*
X161094673Y-68990302D01*
X160998000Y-69223691D01*
X160134910Y-69223691D01*
X160135240Y-68845715D01*
X159924831Y-68336485D01*
X159708687Y-68119964D01*
X159923461Y-67905564D01*
X160134759Y-67396702D01*
X160135240Y-66845715D01*
X159930416Y-66350000D01*
X160985560Y-66350000D01*
X160985560Y-67350000D01*
X161029838Y-67585317D01*
X161168910Y-67801441D01*
X161381110Y-67946431D01*
X161633000Y-67997440D01*
X161908249Y-67997440D01*
X161946992Y-68023327D01*
X162433000Y-68120000D01*
X163945161Y-68120000D01*
X163945166Y-68120001D01*
X164147693Y-68079715D01*
X164156838Y-68128317D01*
X164295910Y-68344441D01*
X164508110Y-68489431D01*
X164760000Y-68540440D01*
X165960000Y-68540440D01*
X166195317Y-68496162D01*
X166411441Y-68357090D01*
X166556431Y-68144890D01*
X166607440Y-67893000D01*
X166607440Y-66906417D01*
X166630000Y-66793000D01*
X166607440Y-66679583D01*
X166607440Y-65693000D01*
X168672560Y-65693000D01*
X168672560Y-67893000D01*
X168716838Y-68128317D01*
X168855910Y-68344441D01*
X169068110Y-68489431D01*
X169320000Y-68540440D01*
X170520000Y-68540440D01*
X170755317Y-68496162D01*
X170971441Y-68357090D01*
X171116431Y-68144890D01*
X171147189Y-67993000D01*
X172847000Y-67993000D01*
X173333008Y-67896327D01*
X173371751Y-67870440D01*
X173647000Y-67870440D01*
X173882317Y-67826162D01*
X174098441Y-67687090D01*
X174243431Y-67474890D01*
X174294440Y-67223000D01*
X174294440Y-66223000D01*
X174250162Y-65987683D01*
X174111090Y-65771559D01*
X173898890Y-65626569D01*
X173647000Y-65575560D01*
X173371751Y-65575560D01*
X173333008Y-65549673D01*
X172847000Y-65453000D01*
X171120149Y-65453000D01*
X170984090Y-65241559D01*
X170771890Y-65096569D01*
X170520000Y-65045560D01*
X169320000Y-65045560D01*
X169084683Y-65089838D01*
X168868559Y-65228910D01*
X168723569Y-65441110D01*
X168672560Y-65693000D01*
X166607440Y-65693000D01*
X166563162Y-65457683D01*
X166424090Y-65241559D01*
X166211890Y-65096569D01*
X165960000Y-65045560D01*
X164760000Y-65045560D01*
X164524683Y-65089838D01*
X164308559Y-65228910D01*
X164163569Y-65441110D01*
X164146986Y-65523000D01*
X162490000Y-65523000D01*
X162003992Y-65619673D01*
X161879943Y-65702560D01*
X161633000Y-65702560D01*
X161397683Y-65746838D01*
X161181559Y-65885910D01*
X161036569Y-66098110D01*
X160985560Y-66350000D01*
X159930416Y-66350000D01*
X159924831Y-66336485D01*
X159535564Y-65946539D01*
X159026702Y-65735241D01*
X158475715Y-65734760D01*
X157966485Y-65945169D01*
X157576539Y-66334436D01*
X157365241Y-66843298D01*
X157364760Y-67394285D01*
X153162000Y-67394285D01*
X153162000Y-64262000D01*
X174498000Y-64262000D01*
X174498000Y-100890000D01*
G36*
X171069000Y-69214351D02*
X171069000Y-77124767D01*
X164211000Y-77089649D01*
X164211000Y-69179233D01*
X171069000Y-69214351D01*
X171069000Y-69214351D01*
G37*
X171069000Y-69214351D02*
X171069000Y-77124767D01*
X164211000Y-77089649D01*
X164211000Y-69179233D01*
X171069000Y-69214351D01*
M02*
