M48
;DRILL file {KiCad 4.0.7-e1-6374~58~ubuntu16.04.1} date Sun Aug 13 09:38:44 2017
;FORMAT={2:4/ absolute / inch / keep zeros}
FMAT,2
INCH,TZ
T1C0.016
T2C0.031
T3C0.039
T4C0.118
%
G90
G05
M72
T1
X063546Y-034785
X063600Y-036300
X064566Y-026298
X065049Y-036436
X065104Y-036996
X066299Y-037951
X066909Y-036622
X067000Y-035000
X067450Y-026269
X067450Y-026269
X067831Y-038183
T2
X062500Y-026425
X062500Y-027213
X062500Y-028000
T3
X061000Y-035000
X061000Y-036000
X061000Y-037000
X061000Y-038000
X061000Y-039000
X062000Y-035000
X062000Y-036000
X062000Y-037000
X062000Y-038000
X062000Y-039000
T4
X063138Y-031500
X064319Y-033350
X065500Y-031500
T0
M30
