G04 #@! TF.FileFunction,Copper,L2,Bot,Signal*
%FSLAX46Y46*%
G04 Gerber Fmt 4.6, Leading zero omitted, Abs format (unit mm)*
G04 Created by KiCad (PCBNEW 4.0.7-e1-6374~58~ubuntu16.04.1) date Sun Aug 13 09:38:41 2017*
%MOMM*%
%LPD*%
G01*
G04 APERTURE LIST*
%ADD10C,0.100000*%
%ADD11R,3.500000X3.500000*%
%ADD12R,1.500000X1.500000*%
%ADD13C,1.500000*%
%ADD14R,1.700000X1.700000*%
%ADD15O,1.700000X1.700000*%
%ADD16C,0.600000*%
%ADD17C,1.270000*%
%ADD18C,0.250000*%
%ADD19C,0.254000*%
G04 APERTURE END LIST*
D10*
D11*
X166370000Y-80010000D03*
X160370000Y-80010000D03*
X163370000Y-84710000D03*
D12*
X158750000Y-71120000D03*
D13*
X158750000Y-69120000D03*
X158750000Y-67120000D03*
D14*
X157480000Y-99060000D03*
D15*
X154940000Y-99060000D03*
X157480000Y-96520000D03*
X154940000Y-96520000D03*
X157480000Y-93980000D03*
X154940000Y-93980000D03*
X157480000Y-91440000D03*
X154940000Y-91440000D03*
X157480000Y-88900000D03*
X154940000Y-88900000D03*
D16*
X171323000Y-66723000D03*
X171323000Y-66723000D03*
X163997884Y-66797282D03*
X170180000Y-88900000D03*
X169949282Y-93020546D03*
X165224325Y-92547682D03*
X161544000Y-92202000D03*
X168398877Y-96394979D03*
X172291784Y-96984849D03*
X165364518Y-93969873D03*
X161408086Y-88353255D03*
D17*
X171323000Y-66723000D02*
X171323000Y-78077000D01*
X171323000Y-78077000D02*
X169390000Y-80010000D01*
X169390000Y-80010000D02*
X166370000Y-80010000D01*
X161675166Y-69120000D02*
X163997884Y-66797282D01*
X158750000Y-69120000D02*
X161675166Y-69120000D01*
D18*
X159004000Y-69088000D02*
X158750000Y-69088000D01*
X158750000Y-69088000D02*
X158750000Y-69120000D01*
X161889682Y-92547682D02*
X165224325Y-92547682D01*
X161544000Y-92202000D02*
X161889682Y-92547682D01*
X156210000Y-97790000D02*
X156229049Y-97809049D01*
X166984807Y-97809049D02*
X168398877Y-96394979D01*
X156210000Y-90170000D02*
X156210000Y-97790000D01*
X154940000Y-88900000D02*
X156210000Y-90170000D01*
X156229049Y-97809049D02*
X166984807Y-97809049D01*
X158750000Y-67120000D02*
X156087917Y-67120000D01*
X156087917Y-67120000D02*
X155484477Y-67723440D01*
X155484477Y-67723440D02*
X155484477Y-82429646D01*
X155484477Y-82429646D02*
X161408086Y-88353255D01*
X169276808Y-93969873D02*
X172291784Y-96984849D01*
X165364518Y-93969873D02*
X169276808Y-93969873D01*
D19*
G36*
X160472964Y-88492935D02*
X160472924Y-88538422D01*
X160614969Y-88882198D01*
X160877759Y-89145447D01*
X161221287Y-89288093D01*
X161593253Y-89288417D01*
X161937029Y-89146372D01*
X162200278Y-88883582D01*
X162342924Y-88540054D01*
X162343248Y-88168088D01*
X162201203Y-87824312D01*
X161938413Y-87561063D01*
X161594885Y-87418417D01*
X161548009Y-87418376D01*
X161251633Y-87122000D01*
X174498000Y-87122000D01*
X174498000Y-100890000D01*
X153162000Y-100890000D01*
X153162000Y-88900000D01*
X153425907Y-88900000D01*
X153538946Y-89468285D01*
X153860853Y-89950054D01*
X154190026Y-90170000D01*
X153860853Y-90389946D01*
X153538946Y-90871715D01*
X153425907Y-91440000D01*
X153538946Y-92008285D01*
X153860853Y-92490054D01*
X154190026Y-92710000D01*
X153860853Y-92929946D01*
X153538946Y-93411715D01*
X153425907Y-93980000D01*
X153538946Y-94548285D01*
X153860853Y-95030054D01*
X154190026Y-95250000D01*
X153860853Y-95469946D01*
X153538946Y-95951715D01*
X153425907Y-96520000D01*
X153538946Y-97088285D01*
X153860853Y-97570054D01*
X154190026Y-97790000D01*
X153860853Y-98009946D01*
X153538946Y-98491715D01*
X153425907Y-99060000D01*
X153538946Y-99628285D01*
X153860853Y-100110054D01*
X154342622Y-100431961D01*
X154910907Y-100545000D01*
X154969093Y-100545000D01*
X155537378Y-100431961D01*
X156019147Y-100110054D01*
X156023097Y-100104142D01*
X156091673Y-100269699D01*
X156270302Y-100448327D01*
X156503691Y-100545000D01*
X157194250Y-100545000D01*
X157353000Y-100386250D01*
X157353000Y-99187000D01*
X157607000Y-99187000D01*
X157607000Y-100386250D01*
X157765750Y-100545000D01*
X158456309Y-100545000D01*
X158689698Y-100448327D01*
X158868327Y-100269699D01*
X158965000Y-100036310D01*
X158965000Y-99345750D01*
X158806250Y-99187000D01*
X157607000Y-99187000D01*
X157353000Y-99187000D01*
X157333000Y-99187000D01*
X157333000Y-98933000D01*
X157353000Y-98933000D01*
X157353000Y-98913000D01*
X157607000Y-98913000D01*
X157607000Y-98933000D01*
X158806250Y-98933000D01*
X158965000Y-98774250D01*
X158965000Y-98569049D01*
X166984807Y-98569049D01*
X167275646Y-98511197D01*
X167522208Y-98346450D01*
X168538557Y-97330101D01*
X168584044Y-97330141D01*
X168927820Y-97188096D01*
X169191069Y-96925306D01*
X169333715Y-96581778D01*
X169334039Y-96209812D01*
X169191994Y-95866036D01*
X168929204Y-95602787D01*
X168585676Y-95460141D01*
X168213710Y-95459817D01*
X167869934Y-95601862D01*
X167606685Y-95864652D01*
X167464039Y-96208180D01*
X167463998Y-96255056D01*
X166670005Y-97049049D01*
X158888859Y-97049049D01*
X158994093Y-96520000D01*
X158881054Y-95951715D01*
X158559147Y-95469946D01*
X158229974Y-95250000D01*
X158559147Y-95030054D01*
X158881054Y-94548285D01*
X158994093Y-93980000D01*
X158881054Y-93411715D01*
X158559147Y-92929946D01*
X158229974Y-92710000D01*
X158559147Y-92490054D01*
X158627893Y-92387167D01*
X160608838Y-92387167D01*
X160750883Y-92730943D01*
X161013673Y-92994192D01*
X161357201Y-93136838D01*
X161429832Y-93136901D01*
X161598842Y-93249830D01*
X161889682Y-93307682D01*
X164661862Y-93307682D01*
X164683104Y-93328961D01*
X164572326Y-93439546D01*
X164429680Y-93783074D01*
X164429356Y-94155040D01*
X164571401Y-94498816D01*
X164834191Y-94762065D01*
X165177719Y-94904711D01*
X165549685Y-94905035D01*
X165893461Y-94762990D01*
X165926636Y-94729873D01*
X168962006Y-94729873D01*
X171356662Y-97124529D01*
X171356622Y-97170016D01*
X171498667Y-97513792D01*
X171761457Y-97777041D01*
X172104985Y-97919687D01*
X172476951Y-97920011D01*
X172820727Y-97777966D01*
X173083976Y-97515176D01*
X173226622Y-97171648D01*
X173226946Y-96799682D01*
X173084901Y-96455906D01*
X172822111Y-96192657D01*
X172478583Y-96050011D01*
X172431707Y-96049970D01*
X169814209Y-93432472D01*
X169567647Y-93267725D01*
X169276808Y-93209873D01*
X165926981Y-93209873D01*
X165905739Y-93188594D01*
X166016517Y-93078009D01*
X166159163Y-92734481D01*
X166159487Y-92362515D01*
X166017442Y-92018739D01*
X165754652Y-91755490D01*
X165411124Y-91612844D01*
X165039158Y-91612520D01*
X164695382Y-91754565D01*
X164662207Y-91787682D01*
X162384479Y-91787682D01*
X162337117Y-91673057D01*
X162074327Y-91409808D01*
X161730799Y-91267162D01*
X161358833Y-91266838D01*
X161015057Y-91408883D01*
X160751808Y-91671673D01*
X160609162Y-92015201D01*
X160608838Y-92387167D01*
X158627893Y-92387167D01*
X158881054Y-92008285D01*
X158994093Y-91440000D01*
X158881054Y-90871715D01*
X158559147Y-90389946D01*
X158229974Y-90170000D01*
X158559147Y-89950054D01*
X158881054Y-89468285D01*
X158994093Y-88900000D01*
X158881054Y-88331715D01*
X158559147Y-87849946D01*
X158077378Y-87528039D01*
X157509093Y-87415000D01*
X157450907Y-87415000D01*
X156882622Y-87528039D01*
X156400853Y-87849946D01*
X156210000Y-88135578D01*
X156019147Y-87849946D01*
X155537378Y-87528039D01*
X154969093Y-87415000D01*
X154910907Y-87415000D01*
X154342622Y-87528039D01*
X153860853Y-87849946D01*
X153538946Y-88331715D01*
X153425907Y-88900000D01*
X153162000Y-88900000D01*
X153162000Y-87122000D01*
X159102029Y-87122000D01*
X160472964Y-88492935D01*
X160472964Y-88492935D01*
G37*
X160472964Y-88492935D02*
X160472924Y-88538422D01*
X160614969Y-88882198D01*
X160877759Y-89145447D01*
X161221287Y-89288093D01*
X161593253Y-89288417D01*
X161937029Y-89146372D01*
X162200278Y-88883582D01*
X162342924Y-88540054D01*
X162343248Y-88168088D01*
X162201203Y-87824312D01*
X161938413Y-87561063D01*
X161594885Y-87418417D01*
X161548009Y-87418376D01*
X161251633Y-87122000D01*
X174498000Y-87122000D01*
X174498000Y-100890000D01*
X153162000Y-100890000D01*
X153162000Y-88900000D01*
X153425907Y-88900000D01*
X153538946Y-89468285D01*
X153860853Y-89950054D01*
X154190026Y-90170000D01*
X153860853Y-90389946D01*
X153538946Y-90871715D01*
X153425907Y-91440000D01*
X153538946Y-92008285D01*
X153860853Y-92490054D01*
X154190026Y-92710000D01*
X153860853Y-92929946D01*
X153538946Y-93411715D01*
X153425907Y-93980000D01*
X153538946Y-94548285D01*
X153860853Y-95030054D01*
X154190026Y-95250000D01*
X153860853Y-95469946D01*
X153538946Y-95951715D01*
X153425907Y-96520000D01*
X153538946Y-97088285D01*
X153860853Y-97570054D01*
X154190026Y-97790000D01*
X153860853Y-98009946D01*
X153538946Y-98491715D01*
X153425907Y-99060000D01*
X153538946Y-99628285D01*
X153860853Y-100110054D01*
X154342622Y-100431961D01*
X154910907Y-100545000D01*
X154969093Y-100545000D01*
X155537378Y-100431961D01*
X156019147Y-100110054D01*
X156023097Y-100104142D01*
X156091673Y-100269699D01*
X156270302Y-100448327D01*
X156503691Y-100545000D01*
X157194250Y-100545000D01*
X157353000Y-100386250D01*
X157353000Y-99187000D01*
X157607000Y-99187000D01*
X157607000Y-100386250D01*
X157765750Y-100545000D01*
X158456309Y-100545000D01*
X158689698Y-100448327D01*
X158868327Y-100269699D01*
X158965000Y-100036310D01*
X158965000Y-99345750D01*
X158806250Y-99187000D01*
X157607000Y-99187000D01*
X157353000Y-99187000D01*
X157333000Y-99187000D01*
X157333000Y-98933000D01*
X157353000Y-98933000D01*
X157353000Y-98913000D01*
X157607000Y-98913000D01*
X157607000Y-98933000D01*
X158806250Y-98933000D01*
X158965000Y-98774250D01*
X158965000Y-98569049D01*
X166984807Y-98569049D01*
X167275646Y-98511197D01*
X167522208Y-98346450D01*
X168538557Y-97330101D01*
X168584044Y-97330141D01*
X168927820Y-97188096D01*
X169191069Y-96925306D01*
X169333715Y-96581778D01*
X169334039Y-96209812D01*
X169191994Y-95866036D01*
X168929204Y-95602787D01*
X168585676Y-95460141D01*
X168213710Y-95459817D01*
X167869934Y-95601862D01*
X167606685Y-95864652D01*
X167464039Y-96208180D01*
X167463998Y-96255056D01*
X166670005Y-97049049D01*
X158888859Y-97049049D01*
X158994093Y-96520000D01*
X158881054Y-95951715D01*
X158559147Y-95469946D01*
X158229974Y-95250000D01*
X158559147Y-95030054D01*
X158881054Y-94548285D01*
X158994093Y-93980000D01*
X158881054Y-93411715D01*
X158559147Y-92929946D01*
X158229974Y-92710000D01*
X158559147Y-92490054D01*
X158627893Y-92387167D01*
X160608838Y-92387167D01*
X160750883Y-92730943D01*
X161013673Y-92994192D01*
X161357201Y-93136838D01*
X161429832Y-93136901D01*
X161598842Y-93249830D01*
X161889682Y-93307682D01*
X164661862Y-93307682D01*
X164683104Y-93328961D01*
X164572326Y-93439546D01*
X164429680Y-93783074D01*
X164429356Y-94155040D01*
X164571401Y-94498816D01*
X164834191Y-94762065D01*
X165177719Y-94904711D01*
X165549685Y-94905035D01*
X165893461Y-94762990D01*
X165926636Y-94729873D01*
X168962006Y-94729873D01*
X171356662Y-97124529D01*
X171356622Y-97170016D01*
X171498667Y-97513792D01*
X171761457Y-97777041D01*
X172104985Y-97919687D01*
X172476951Y-97920011D01*
X172820727Y-97777966D01*
X173083976Y-97515176D01*
X173226622Y-97171648D01*
X173226946Y-96799682D01*
X173084901Y-96455906D01*
X172822111Y-96192657D01*
X172478583Y-96050011D01*
X172431707Y-96049970D01*
X169814209Y-93432472D01*
X169567647Y-93267725D01*
X169276808Y-93209873D01*
X165926981Y-93209873D01*
X165905739Y-93188594D01*
X166016517Y-93078009D01*
X166159163Y-92734481D01*
X166159487Y-92362515D01*
X166017442Y-92018739D01*
X165754652Y-91755490D01*
X165411124Y-91612844D01*
X165039158Y-91612520D01*
X164695382Y-91754565D01*
X164662207Y-91787682D01*
X162384479Y-91787682D01*
X162337117Y-91673057D01*
X162074327Y-91409808D01*
X161730799Y-91267162D01*
X161358833Y-91266838D01*
X161015057Y-91408883D01*
X160751808Y-91671673D01*
X160609162Y-92015201D01*
X160608838Y-92387167D01*
X158627893Y-92387167D01*
X158881054Y-92008285D01*
X158994093Y-91440000D01*
X158881054Y-90871715D01*
X158559147Y-90389946D01*
X158229974Y-90170000D01*
X158559147Y-89950054D01*
X158881054Y-89468285D01*
X158994093Y-88900000D01*
X158881054Y-88331715D01*
X158559147Y-87849946D01*
X158077378Y-87528039D01*
X157509093Y-87415000D01*
X157450907Y-87415000D01*
X156882622Y-87528039D01*
X156400853Y-87849946D01*
X156210000Y-88135578D01*
X156019147Y-87849946D01*
X155537378Y-87528039D01*
X154969093Y-87415000D01*
X154910907Y-87415000D01*
X154342622Y-87528039D01*
X153860853Y-87849946D01*
X153538946Y-88331715D01*
X153425907Y-88900000D01*
X153162000Y-88900000D01*
X153162000Y-87122000D01*
X159102029Y-87122000D01*
X160472964Y-88492935D01*
M02*
